<svg width="540" height="474" viewBox="0 0 540 474" fill="none" xmlns="http://www.w3.org/2000/svg">
<path d="M79.0544 428.026C184.46 488.62 355.368 488.62 460.774 428.026C566.18 367.433 566.18 269.189 460.774 208.582C355.368 147.976 184.508 147.989 79.0544 208.582C-26.3997 269.176 -26.3033 367.433 79.0544 428.026Z" fill="#F5F5F5"/>
<path d="M49.6719 328.655L15.4083 306.892V226.022L49.6719 247.798V328.655Z" fill="#E0E0E0"/>
<path d="M49.6719 247.798L98.6267 216.699V297.556L49.6719 328.655V247.798Z" fill="#EBEBEB"/>
<path d="M98.6266 216.699L49.6719 247.798L15.4083 226.022L64.3631 194.923L98.6266 216.699Z" fill="#F5F5F5"/>
<path d="M54.577 250.901L93.7336 226.022L94.6375 226.592V256.551L55.4688 281.43L54.5649 280.86L54.577 250.901Z" fill="#E0E0E0"/>
<path d="M55.4688 251.485L94.6374 226.592V256.551L55.4688 281.43V251.485Z" fill="#F5F5F5"/>
<path d="M70.8228 246.803L77.4875 242.573C78.3432 242.016 79.0422 242.268 79.0422 243.13C78.9801 243.658 78.8074 244.163 78.5376 244.604C78.2678 245.046 77.9083 245.413 77.4875 245.676L70.8228 249.906C69.9551 250.463 69.2561 250.212 69.2561 249.349C69.3186 248.82 69.4928 248.314 69.7649 247.872C70.0369 247.43 70.3992 247.064 70.8228 246.803Z" fill="#E0E0E0"/>
<path d="M53.6731 288.803L92.8297 263.924V293.882L93.7336 294.453L54.5649 319.332L53.6731 318.762V288.803Z" fill="#E0E0E0"/>
<path d="M54.5649 289.374L93.7336 264.495V294.453L54.5649 319.333V289.374Z" fill="#F5F5F5"/>
<path d="M69.9191 284.706L76.644 280.489C77.5118 279.932 78.2108 280.184 78.2108 281.046C78.1483 281.575 77.9741 282.081 77.702 282.523C77.43 282.966 77.0676 283.331 76.644 283.592L69.9793 287.822C69.1116 288.379 68.4126 288.127 68.4126 287.265C68.4668 286.74 68.631 286.235 68.8924 285.791C69.1538 285.347 69.5052 284.975 69.9191 284.706Z" fill="#E0E0E0"/>
<path d="M49.6719 243.13L15.4083 221.354V140.496L49.6719 162.259V243.13Z" fill="#E0E0E0"/>
<path d="M49.6719 162.259L98.6267 131.16V212.031L49.6719 243.13V162.259Z" fill="#EBEBEB"/>
<path d="M98.6266 131.16L49.6719 162.259L15.4083 140.496L64.3631 109.397L98.6266 131.16Z" fill="#F5F5F5"/>
<path d="M54.5649 165.375L93.7336 140.496L94.6375 141.066V171.025L55.4688 195.904L54.5649 195.32V165.375Z" fill="#E0E0E0"/>
<path d="M70.8228 161.264L77.4755 157.034C78.3432 156.49 79.0422 156.742 79.0422 157.604C78.9779 158.133 78.803 158.638 78.5311 159.08C78.2592 159.522 77.8979 159.888 77.4755 160.15L70.8228 164.381C69.9551 164.924 69.2561 164.686 69.2561 163.824C69.3195 163.293 69.494 162.785 69.7659 162.341C70.0378 161.897 70.3996 161.528 70.8228 161.264Z" fill="#E0E0E0"/>
<path d="M53.6731 203.278L92.8297 178.399V208.344L93.7336 208.914L54.5649 233.793L53.6731 233.223V203.278Z" fill="#E0E0E0"/>
<path d="M54.5649 203.848L93.7336 178.969V208.914L54.5649 233.793V203.848Z" fill="#F5F5F5"/>
<path d="M69.919 199.167L76.644 194.936C77.4997 194.392 78.2107 194.644 78.2107 195.506C78.1429 196.034 77.9665 196.538 77.695 196.979C77.4235 197.42 77.064 197.788 76.644 198.053L69.919 202.243C69.0513 202.787 68.3523 202.535 68.3523 201.686C68.421 201.163 68.5979 200.663 68.8696 200.226C69.1412 199.789 69.5002 199.427 69.919 199.167Z" fill="#E0E0E0"/>
<path d="M54.5649 165.375L93.7336 140.496V170.441L54.5649 195.32V165.375Z" fill="#E0E0E0"/>
<path d="M113.318 155.297L91.8777 141.677V168.068L113.318 181.674V155.297Z" fill="#E0E0E0"/>
<path d="M69.2561 199.591V162.259L77.6563 156.901L79.0422 159.156L103.52 143.6V177.815L69.2561 199.591Z" fill="#EBEBEB"/>
<path d="M69.2561 199.591L71.7026 166.927L105.966 145.164L103.52 177.815L69.2561 199.591Z" fill="#F5F5F5"/>
<path d="M74.1492 180.176L55.4688 168.306V194.697L74.1492 206.553V180.176Z" fill="#EBEBEB"/>
<path d="M74.1492 177.815L113.318 152.936V182.881L74.1492 207.76V177.815Z" fill="#F5F5F5"/>
<path d="M89.5034 173.134L96.156 168.903C97.0238 168.359 97.7228 168.611 97.7228 169.473C97.6576 170.002 97.4823 170.507 97.2105 170.948C96.9387 171.39 96.5778 171.757 96.156 172.02L89.5034 176.25C88.6356 176.794 87.9366 176.542 87.9366 175.693C88.0001 175.162 88.1746 174.655 88.4464 174.211C88.7183 173.767 89.0801 173.398 89.5034 173.134Z" fill="#E0E0E0"/>
<path d="M74.1493 177.815L72.8477 176.992V206.938L74.1493 207.76V177.815Z" fill="#E0E0E0"/>
<path d="M72.8477 176.993L112.004 152.1L113.318 152.936L74.1493 177.815L72.8477 176.993Z" fill="#EBEBEB"/>
<path d="M454.471 279.666L420.195 257.89V177.032L454.471 198.795V279.666Z" fill="#E0E0E0"/>
<path d="M454.471 198.795L503.425 167.696V248.567L454.471 279.666V198.795Z" fill="#EBEBEB"/>
<path d="M503.426 167.696L454.471 198.795L420.195 177.032L469.162 145.92L503.426 167.696Z" fill="#F5F5F5"/>
<path d="M459.364 201.911L498.532 177.032L499.436 177.602L499.424 207.548L460.268 232.427L459.364 231.857V201.911Z" fill="#E0E0E0"/>
<path d="M460.268 202.482L499.436 177.603L499.424 207.548L460.268 232.428V202.482Z" fill="#F5F5F5"/>
<path d="M475.622 197.801L482.275 193.57C483.142 193.027 483.841 193.279 483.841 194.127C483.778 194.658 483.603 195.166 483.332 195.61C483.06 196.054 482.698 196.423 482.275 196.687L475.622 200.917C474.754 201.461 474.055 201.209 474.055 200.36C474.119 199.829 474.293 199.322 474.565 198.878C474.837 198.434 475.199 198.065 475.622 197.801Z" fill="#E0E0E0"/>
<path d="M458.46 239.814L497.629 214.922V244.88L498.533 245.45L459.364 270.33L458.46 269.759V239.814Z" fill="#E0E0E0"/>
<path d="M459.364 240.384L498.532 215.505V245.45L459.364 270.329V240.384Z" fill="#F5F5F5"/>
<path d="M474.718 235.703L481.383 231.472C482.238 230.928 482.937 231.18 482.937 232.029C482.874 232.558 482.7 233.064 482.431 233.508C482.161 233.952 481.803 234.321 481.383 234.589L474.718 238.819C473.85 239.363 473.151 239.111 473.151 238.249C473.217 237.72 473.392 237.215 473.664 236.774C473.935 236.332 474.296 235.966 474.718 235.703Z" fill="#E0E0E0"/>
<path d="M128.467 364.184C128.467 364.184 128.6 343.151 116.548 327.383C105.882 313.418 100.206 304.559 103.568 300.474C106.93 296.39 114.162 295.408 123.912 306.707C133.662 318.006 134.421 349.304 133.071 356.386L128.467 364.184Z" fill="#02897A"/>
<path opacity="0.2" d="M128.467 364.184C128.467 364.184 128.6 343.151 116.548 327.383C105.882 313.418 100.206 304.559 103.568 300.474C106.93 296.39 114.162 295.408 123.912 306.707C133.662 318.006 134.421 349.304 133.071 356.386L128.467 364.184Z" fill="black"/>
<path d="M130.492 341.572C130.355 341.573 130.221 341.522 130.114 341.428C130.007 341.334 129.932 341.203 129.901 341.055C125.683 319.346 114.861 307.344 108.774 302.118C108.648 302.011 108.566 301.853 108.546 301.679C108.526 301.505 108.569 301.329 108.666 301.19C108.766 301.051 108.911 300.96 109.072 300.938C109.232 300.915 109.393 300.963 109.522 301.071C115.728 306.375 126.78 318.656 131.082 340.777C131.1 340.861 131.102 340.949 131.089 341.034C131.075 341.12 131.046 341.201 131.003 341.274C130.961 341.347 130.905 341.41 130.84 341.459C130.775 341.508 130.702 341.542 130.624 341.559L130.492 341.572Z" fill="white"/>
<path d="M128.009 371.996L123.104 375.112C122.581 373.539 121.698 372.14 120.542 371.051C119.385 369.962 117.993 369.218 116.5 368.892C111.137 367.566 105.569 367.792 101.808 362.673C98.0482 357.553 102.628 351.983 101.808 348.217C100.989 344.451 100.459 343.363 93.7337 339.597C87.0087 335.831 84.3573 329.584 89.4191 325.354C94.4809 321.123 102.676 324.226 107.642 328.006C112.053 331.321 116.247 332.197 121.176 332.873C126.105 333.549 134.132 336.56 132.902 349.159C132.097 356.957 130.455 364.623 128.009 371.996Z" fill="#02897A"/>
<path d="M109.184 355.445C109.056 355.444 108.931 355.398 108.827 355.315C108.723 355.232 108.646 355.115 108.606 354.981C108.56 354.812 108.576 354.63 108.65 354.474C108.725 354.318 108.851 354.2 109.003 354.145C109.437 353.999 119.85 350.366 124.273 354.265C124.383 354.379 124.45 354.534 124.461 354.7C124.471 354.865 124.425 355.029 124.331 355.159C124.237 355.289 124.102 355.376 123.953 355.402C123.804 355.428 123.652 355.391 123.526 355.299C119.621 351.851 109.473 355.379 109.365 355.418L109.184 355.445Z" fill="white"/>
<path d="M128.551 370.987C128.405 370.988 128.263 370.929 128.154 370.821C128.045 370.713 127.976 370.564 127.961 370.404C125.273 342.474 94.6977 329.226 94.3964 329.093C94.3217 329.062 94.2533 329.015 94.1952 328.955C94.1371 328.895 94.0904 328.823 94.0579 328.742C94.0254 328.662 94.0077 328.576 94.0058 328.488C94.0039 328.4 94.0179 328.313 94.0469 328.231C94.1062 328.07 94.2192 327.941 94.3628 327.869C94.5063 327.798 94.6694 327.789 94.8182 327.846C95.1436 327.992 126.394 341.519 129.154 370.284C129.171 370.458 129.125 370.632 129.025 370.769C128.926 370.906 128.782 370.994 128.624 371.014L128.551 370.987Z" fill="white"/>
<path d="M428.318 353.654C428.451 353.19 433.621 323.908 428.318 303.14C423.498 284.096 417.207 277.067 408.24 275.516C399.273 273.964 395.381 281.072 400.141 290.7C404.902 300.329 416.363 313.1 419.171 334.61C420.376 343.469 421.292 351.161 421.292 351.161L428.318 353.654Z" fill="#02897A"/>
<path opacity="0.2" d="M428.318 353.654C428.451 353.19 433.621 323.908 428.318 303.14C423.498 284.096 417.207 277.067 408.24 275.516C399.273 273.964 395.381 281.072 400.141 290.7C404.902 300.329 416.363 313.1 419.171 334.61C420.376 343.469 421.292 351.161 421.292 351.161L428.318 353.654Z" fill="black"/>
<path d="M425.293 336.838C425.214 336.833 425.137 336.811 425.065 336.773C424.994 336.735 424.93 336.682 424.877 336.616C424.825 336.551 424.784 336.475 424.759 336.392C424.733 336.31 424.722 336.223 424.727 336.135C425.932 312.423 418.894 291.257 406.275 280.873C406.148 280.768 406.063 280.611 406.04 280.437C406.018 280.263 406.059 280.086 406.155 279.945C406.253 279.807 406.395 279.716 406.552 279.692C406.71 279.667 406.87 279.71 406.999 279.812C419.93 290.422 427.185 312.065 425.92 336.215C425.911 336.389 425.84 336.551 425.723 336.668C425.605 336.784 425.451 336.846 425.293 336.838Z" fill="white"/>
<path d="M442.19 368.906C441.503 363.455 444.347 355.286 451.108 353.35C457.869 351.413 460.882 347.143 458.448 342.475C456.013 337.807 456.58 333.523 462.714 331.587C468.849 329.651 474.224 326.282 470.693 319.147C468.126 313.988 467.559 310.646 473.85 300.488C479.069 292.053 474.802 287.107 468.27 288.035C461.738 288.963 457.701 297.53 453.615 298.963C449.529 300.395 448.589 292.756 443.202 296.178C437.815 299.599 438.14 308.365 437.972 314.479C437.803 320.593 437.441 321.972 432.572 321.229C427.703 320.487 422.931 321.362 423.039 334.319C423.124 345.432 428.511 359.198 428.511 359.198L442.19 368.906Z" fill="#02897A"/>
<path d="M433.646 360.617H433.585C433.424 360.597 433.277 360.508 433.175 360.369C433.073 360.229 433.026 360.052 433.043 359.874C436.442 326.468 462.498 298.286 469.295 292.57C469.423 292.463 469.584 292.416 469.744 292.44C469.903 292.463 470.047 292.556 470.145 292.696C470.242 292.837 470.285 293.015 470.263 293.19C470.242 293.365 470.158 293.524 470.03 293.631C463.317 299.268 437.599 327.078 434.248 360.02C434.231 360.183 434.16 360.334 434.049 360.443C433.938 360.553 433.795 360.615 433.646 360.617Z" fill="white"/>
<path d="M445.528 324.903C445.406 324.902 445.287 324.862 445.186 324.786C445.085 324.71 445.007 324.603 444.962 324.479C444.91 324.312 444.919 324.129 444.986 323.968C445.054 323.808 445.174 323.682 445.323 323.617C455.037 319.638 466.053 321.521 466.523 321.601C466.679 321.63 466.818 321.726 466.911 321.867C467.003 322.009 467.041 322.185 467.017 322.357C466.987 322.528 466.9 322.681 466.773 322.784C466.645 322.887 466.487 322.934 466.33 322.914C466.221 322.914 455.158 321.004 445.745 324.863C445.675 324.889 445.602 324.903 445.528 324.903Z" fill="white"/>
<path d="M436.875 344.981C436.79 344.98 436.707 344.96 436.63 344.921C436.553 344.882 436.485 344.826 436.429 344.756C432.389 339.579 429.651 333.329 428.487 326.627C428.475 326.541 428.479 326.453 428.497 326.368C428.516 326.283 428.55 326.203 428.597 326.133C428.644 326.063 428.704 326.004 428.771 325.959C428.839 325.914 428.915 325.884 428.993 325.871C429.071 325.858 429.151 325.862 429.228 325.883C429.305 325.903 429.378 325.941 429.442 325.993C429.505 326.044 429.559 326.109 429.6 326.184C429.641 326.259 429.668 326.342 429.68 326.428C430.832 332.866 433.467 338.871 437.333 343.867C437.408 343.965 437.457 344.084 437.473 344.211C437.489 344.338 437.472 344.467 437.424 344.584C437.376 344.7 437.299 344.8 437.202 344.87C437.105 344.94 436.991 344.979 436.875 344.981Z" fill="white"/>
<path d="M128.009 166.741V372.008L318.935 250.715L318.923 64.1074L176.964 154.301L172.059 138.745L128.009 166.741Z" fill="#22343D"/>
<path d="M128.009 372.008L137.795 185.4L328.721 64.1074L318.935 250.715L128.009 372.008Z" fill="#E0E0E0"/>
<path d="M128.009 372.008L142.688 188.517L333.614 67.2112L318.935 250.715L128.009 372.008Z" fill="#22343D"/>
<path d="M157.38 185.401V390.681L348.306 269.375V82.7677L206.334 172.962L201.441 157.405L157.38 185.401Z" fill="#F03E3D"/>
<path d="M157.38 390.681L167.166 204.061L358.092 82.7677L348.306 269.375L157.38 390.681Z" fill="#E0E0E0"/>
<path d="M157.38 390.681L172.059 207.177L362.985 85.8707L348.306 269.375L157.38 390.681Z" fill="#F03E3D"/>
<path d="M318.887 455.996C284.611 434.22 252.819 410.548 238.308 382.777L282.418 354.755L318.887 455.996Z" fill="#E0E0E0"/>
<path d="M191.643 207.177V412.444L382.569 291.151V104.543L240.598 194.737L235.705 179.181L191.643 207.177Z" fill="#02897A"/>
<path opacity="0.2" d="M191.643 207.177V412.444L382.569 291.151V104.543L240.598 194.737L235.705 179.181L191.643 207.177Z" fill="black"/>
<path d="M246.648 267.863C246.166 267.863 246.094 267.253 246.094 266.894V91.8381C246.132 91.159 246.313 90.499 246.623 89.91C246.932 89.3209 247.362 88.8188 247.877 88.443L385.679 0.914831C385.867 0.785309 386.083 0.712165 386.305 0.702637C386.787 0.702637 386.86 1.31269 386.86 1.67076V176.727C386.822 177.408 386.641 178.07 386.332 178.662C386.022 179.253 385.592 179.758 385.076 180.135L247.275 267.664C247.084 267.787 246.869 267.855 246.648 267.863Z" fill="white"/>
<path d="M386.233 1.31313C386.243 1.41009 386.243 1.50794 386.233 1.60489V176.661C386.193 177.226 386.04 177.774 385.783 178.265C385.527 178.756 385.174 179.177 384.751 179.499L246.949 267.028L246.708 267.147C246.692 267.05 246.692 266.952 246.708 266.855V91.7987C246.75 91.2364 246.904 90.6913 247.16 90.2027C247.417 89.7142 247.769 89.2945 248.19 88.974L385.992 1.44575C386.068 1.38725 386.154 1.34662 386.245 1.3264L386.233 1.31313ZM386.317 0.000211864C385.989 0.0109635 385.669 0.116131 385.389 0.305239L247.588 87.8334C246.982 88.2713 246.478 88.8593 246.116 89.5502C245.754 90.2411 245.544 91.0157 245.503 91.812V266.868C245.503 267.903 245.973 268.5 246.708 268.5C247.037 268.49 247.357 268.385 247.636 268.195L385.437 180.666C386.046 180.232 386.552 179.644 386.914 178.953C387.277 178.261 387.485 177.485 387.522 176.688V1.63142C387.522 0.597 387.052 -0.01305 386.317 0.000211864Z" fill="#02897A"/>
<path opacity="0.7" d="M386.233 1.31313C386.243 1.41009 386.243 1.50794 386.233 1.60489V176.661C386.193 177.226 386.04 177.774 385.783 178.265C385.527 178.756 385.174 179.177 384.751 179.499L246.949 267.028L246.708 267.147C246.692 267.05 246.692 266.952 246.708 266.855V91.7987C246.75 91.2364 246.904 90.6913 247.16 90.2027C247.417 89.7142 247.769 89.2945 248.19 88.974L385.992 1.44575C386.068 1.38725 386.154 1.34662 386.245 1.3264L386.233 1.31313ZM386.317 0.000211864C385.989 0.0109635 385.669 0.116131 385.389 0.305239L247.588 87.8334C246.982 88.2713 246.478 88.8593 246.116 89.5502C245.754 90.2411 245.544 91.0157 245.503 91.812V266.868C245.503 267.903 245.973 268.5 246.708 268.5C247.037 268.49 247.357 268.385 247.636 268.195L385.437 180.666C386.046 180.232 386.552 179.644 386.914 178.953C387.277 178.261 387.485 177.485 387.522 176.688V1.63142C387.522 0.597 387.052 -0.01305 386.317 0.000211864Z" fill="white"/>
<path d="M260.182 98.4828L309.137 67.3838V129.582L260.182 160.681V98.4828Z" fill="#02897A"/>
<path opacity="0.8" d="M260.182 98.4828L309.137 67.3838V129.582L260.182 160.681V98.4828Z" fill="#11B5E4"/>
<path d="M301.797 82.8872V101.586L300.255 102.528V96.8121C300.255 93.6558 297.929 92.5816 295.036 94.4118L274.295 107.607C271.415 109.437 269.076 113.482 269.076 116.639V122.354L267.546 123.362V104.703L301.797 82.8872Z" fill="white"/>
<path d="M292.373 130.497C289.866 132.088 287.829 130.417 287.829 126.744V96.8118L281.526 100.578V130.749C281.526 134.409 279.489 138.706 276.982 140.258L272.427 143.149V145.138L296.904 129.582V127.606L292.373 130.497Z" fill="white"/>
<path d="M318.887 64.3205C318.887 66.0446 320.297 66.5352 322.02 65.4478L369.65 35.1445C370.495 34.6174 371.217 33.8821 371.761 32.9963C372.305 32.1104 372.654 31.0981 372.783 30.0386C372.783 28.3279 371.373 27.8239 369.65 28.9246L322.057 59.1617C321.198 59.6877 320.463 60.4288 319.912 61.325C319.362 62.2212 319.011 63.2473 318.887 64.3205Z" fill="#455A64"/>
<path d="M318.887 82.887C318.887 84.6111 320.297 85.115 322.02 84.0143L369.613 53.7773C370.458 53.2502 371.181 52.5149 371.725 51.6291C372.268 50.7433 372.618 49.7309 372.747 48.6714C372.747 46.9607 371.337 46.4567 369.613 47.5575L322.02 77.7945C321.177 78.3202 320.455 79.0534 319.912 79.9368C319.368 80.8202 319.017 81.8299 318.887 82.887Z" fill="#455A64"/>
<path d="M318.887 101.586C318.887 103.31 320.297 103.813 322.02 102.713L369.613 72.4758C370.457 71.95 371.179 71.2168 371.722 70.3334C372.266 69.45 372.616 68.4403 372.747 67.3832C372.747 65.6592 371.337 65.1552 369.613 66.2559L322.02 96.4929C321.177 97.0187 320.455 97.7519 319.912 98.6353C319.368 99.5187 319.017 100.528 318.887 101.586Z" fill="#455A64"/>
<path d="M318.887 120.246C318.887 121.97 320.297 122.474 322.02 121.373L369.613 91.136C370.457 90.6103 371.179 89.8771 371.722 88.9937C372.266 88.1103 372.616 87.1006 372.747 86.0435C372.747 84.3194 371.337 83.8155 369.613 84.9162L322.02 115.153C321.177 115.679 320.455 116.412 319.912 117.296C319.368 118.179 319.017 119.189 318.887 120.246Z" fill="#455A64"/>
<path d="M260.182 176.237C260.182 177.961 261.58 178.465 263.316 177.365L369.649 109.729C370.494 109.205 371.217 108.472 371.761 107.589C372.304 106.705 372.654 105.694 372.783 104.637C372.783 102.913 371.373 102.422 369.649 103.509L263.316 171.145C262.47 171.668 261.747 172.401 261.203 173.285C260.659 174.168 260.31 175.179 260.182 176.237Z" fill="#455A64"/>
<path d="M260.182 194.896C260.182 196.62 261.58 197.124 263.316 196.023L369.649 128.467C370.495 127.94 371.217 127.205 371.761 126.319C372.305 125.433 372.654 124.421 372.783 123.362C372.783 121.651 371.373 121.147 369.649 122.248L263.316 189.803C262.47 190.327 261.747 191.059 261.203 191.943C260.659 192.827 260.31 193.838 260.182 194.896Z" fill="#455A64"/>
<path d="M260.182 213.569C260.182 215.279 261.58 215.783 263.316 214.683L369.649 147.127C370.495 146.6 371.217 145.864 371.761 144.979C372.305 144.093 372.654 143.08 372.783 142.021C372.783 140.31 371.373 139.806 369.649 140.907L263.316 208.463C262.469 208.987 261.745 209.722 261.201 210.608C260.657 211.495 260.308 212.508 260.182 213.569Z" fill="#455A64"/>
<path d="M191.643 412.444L225.907 247.612L416.833 126.306L382.569 291.151L191.643 412.444Z" fill="#02897A"/>
<path d="M238.356 260.516V382.777L282.418 354.781V232.533L238.356 260.516Z" fill="#02897A"/>
<path opacity="0.2" d="M238.356 260.516V382.777L282.418 354.781V232.533L238.356 260.516Z" fill="black"/>
<path d="M318.971 455.2C315.223 452.124 279.092 421.741 260.725 378.282C241.176 332.077 241.2 278.181 241.2 257.904V257.267L372.18 174.062C372.18 194.525 372.18 248.501 391.813 294.865C409.758 337.302 444.504 367.301 450.012 371.889L318.971 455.2Z" fill="white"/>
<path d="M371.578 175.256C371.578 196.581 371.952 249.522 391.271 295.196C408.613 336.175 441.587 365.643 448.927 371.863L319.008 454.404C313.934 450.2 279.164 420.321 261.279 378.056C241.755 331.984 241.755 278.194 241.755 257.943V257.691L371.53 175.242L371.578 175.256ZM372.735 172.948L240.55 256.935C240.55 276.019 240.188 331.467 260.134 378.613C279.767 424.883 318.887 455.996 318.887 455.996L451.108 371.995C451.108 371.995 411.94 340.883 392.367 294.612C372.41 247.466 372.783 192.019 372.783 172.935L372.735 172.948Z" fill="#02897A"/>
<path opacity="0.7" d="M371.578 175.256C371.578 196.581 371.952 249.522 391.271 295.196C408.613 336.175 441.587 365.643 448.927 371.863L319.008 454.404C313.934 450.2 279.164 420.321 261.279 378.056C241.755 331.984 241.755 278.194 241.755 257.943V257.691L371.53 175.242L371.578 175.256ZM372.735 172.948L240.55 256.935C240.55 276.019 240.188 331.467 260.134 378.613C279.767 424.883 318.887 455.996 318.887 455.996L451.108 371.995C451.108 371.995 411.94 340.883 392.367 294.612C372.41 247.466 372.783 192.019 372.783 172.935L372.735 172.948Z" fill="white"/>
<path d="M357.827 201.116L316.031 227.64C315.194 228.146 314.481 228.868 313.952 229.743C313.423 230.618 313.095 231.621 312.994 232.666C313.054 234.35 314.512 234.828 316.236 233.727L358.044 207.203C358.87 206.701 359.576 205.989 360.102 205.126C360.628 204.264 360.96 203.275 361.069 202.243C360.996 200.493 359.562 200.015 357.827 201.116Z" fill="#455A64"/>
<path d="M358.718 219.218L316.922 245.742C316.096 246.231 315.395 246.943 314.885 247.81C314.375 248.677 314.073 249.672 314.006 250.702C314.138 252.333 315.657 252.771 317.38 251.67L359.188 225.147C360.011 224.659 360.707 223.949 361.211 223.084C361.715 222.218 362.01 221.226 362.069 220.2C361.948 218.555 360.454 218.158 358.718 219.218Z" fill="#455A64"/>
<path d="M360.394 236.817L318.586 263.341C316.862 264.442 315.609 266.63 315.814 268.208C316.019 269.786 317.597 270.197 319.333 269.097L361.141 242.573C362.864 241.472 364.094 239.297 363.877 237.719C363.66 236.141 362.117 235.717 360.394 236.817Z" fill="#455A64"/>
<path d="M362.9 253.885L321.092 280.409C319.369 281.51 318.176 283.658 318.465 285.196C318.754 286.735 320.393 287.079 322.081 285.979L363.877 259.455C365.612 258.354 366.769 256.219 366.48 254.681C366.191 253.142 364.684 252.784 362.9 253.885Z" fill="#455A64"/>
<path d="M366.299 270.383L324.491 296.907C322.768 298.008 321.647 300.103 322.081 301.575C322.515 303.047 324.166 303.379 325.889 302.278L367.697 275.754C369.433 274.653 370.517 272.571 370.108 271.086C369.698 269.601 368.023 269.282 366.299 270.383Z" fill="#455A64"/>
<path d="M370.71 286.284L268.824 351.015C267.1 352.116 266.052 354.158 266.522 355.577C266.992 356.996 268.787 357.262 270.511 356.161L372.398 291.43C374.133 290.329 375.133 288.3 374.663 286.868C374.193 285.435 372.373 285.183 370.71 286.284Z" fill="#455A64"/>
<path d="M376.073 301.469L274.198 366.2C272.463 367.3 271.511 369.29 272.089 370.642C272.668 371.995 274.5 372.207 276.259 371.106L378.146 306.375C379.881 305.275 380.809 303.285 380.231 301.933C379.652 300.58 377.809 300.381 376.073 301.469Z" fill="#455A64"/>
<path d="M382.762 315.938L280.875 380.669C279.14 381.769 278.284 383.706 278.971 384.992C279.658 386.278 281.622 386.411 283.358 385.31L385.172 320.579C386.896 319.492 387.727 317.569 387.04 316.282C386.353 314.996 384.449 314.837 382.762 315.938Z" fill="#455A64"/>
<path d="M390.56 329.624L288.685 394.341C286.949 395.442 286.178 397.339 286.962 398.545C287.745 399.752 289.806 399.872 291.541 398.758L393.416 334.027C395.151 332.926 395.899 331.056 395.115 329.836C394.332 328.616 392.295 328.523 390.56 329.624Z" fill="#455A64"/>
<path d="M399.454 342.633L297.567 407.351C295.844 408.452 295.157 410.295 296.025 411.449C296.892 412.603 299.025 412.656 300.761 411.555L402.648 346.798C404.371 345.697 405.058 343.88 404.166 342.726C403.274 341.572 401.189 341.493 399.454 342.633Z" fill="#455A64"/>
<path d="M409.276 355.02L307.426 419.737C305.69 420.838 305.015 422.642 306.028 423.716C307.04 424.79 309.185 424.817 310.909 423.716L412.795 358.985C414.531 357.884 415.133 356.107 414.169 355.006C413.205 353.906 411.036 353.932 409.276 355.02Z" fill="#455A64"/>
<path d="M420.123 366.863L318.236 431.581C316.513 432.681 315.946 434.445 317.031 435.493C318.116 436.541 320.333 436.501 322.069 435.4L423.871 370.669C425.594 369.568 426.137 367.844 425.076 366.783C424.016 365.722 421.81 365.762 420.123 366.863Z" fill="#455A64"/>
<path d="M300.881 237.308L252.818 267.81C253.349 286.973 255.337 314.611 262.617 342.448L310.692 311.945C303.4 284.109 301.412 256.458 300.881 237.308Z" fill="#02897A"/>
<path opacity="0.8" d="M300.881 237.308L252.818 267.81C253.349 286.973 255.337 314.611 262.617 342.448L310.692 311.945C303.4 284.109 301.412 256.458 300.881 237.308Z" fill="#11B5E4"/>
<path d="M272.415 263.593C272.48 262.356 272.305 261.118 271.902 259.961C271.498 258.804 270.876 257.754 270.077 256.882L252.818 267.836C252.963 272.902 253.204 278.565 253.626 284.666C255.871 284.95 258.142 284.488 260.146 283.339C266.931 279.918 272.415 271.046 272.415 263.593Z" fill="#02897A"/>
<path opacity="0.6" d="M272.415 263.593C272.48 262.356 272.305 261.118 271.902 259.961C271.498 258.804 270.876 257.754 270.077 256.882L252.818 267.836C252.963 272.902 253.204 278.565 253.626 284.666C255.871 284.95 258.142 284.488 260.146 283.339C266.931 279.918 272.415 271.046 272.415 263.593Z" fill="white"/>
<path d="M306.606 293.644C303.4 289.202 296.88 275.476 294.096 269.495C293.987 269.258 293.815 269.063 293.604 268.935C293.393 268.807 293.152 268.751 292.912 268.776C292.672 268.8 292.444 268.903 292.257 269.071C292.071 269.24 291.935 269.466 291.867 269.72C288.855 281.049 287.106 292.739 286.66 304.532C282.646 301.026 279.196 296.803 276.452 292.04C276.335 291.855 276.173 291.711 275.984 291.625C275.795 291.539 275.588 291.513 275.386 291.552C275.185 291.591 274.998 291.693 274.847 291.845C274.697 291.997 274.589 292.194 274.536 292.411C269.281 314.678 271.921 336.586 271.921 336.586L310.692 311.946C309.077 305.792 307.739 299.665 306.606 293.644Z" fill="#02897A"/>
<path opacity="0.6" d="M306.606 293.644C303.4 289.202 296.88 275.476 294.096 269.495C293.987 269.258 293.815 269.063 293.604 268.935C293.393 268.807 293.152 268.751 292.912 268.776C292.672 268.8 292.444 268.903 292.257 269.071C292.071 269.24 291.935 269.466 291.867 269.72C288.855 281.049 287.106 292.739 286.66 304.532C282.646 301.026 279.196 296.803 276.452 292.04C276.335 291.855 276.173 291.711 275.984 291.625C275.795 291.539 275.588 291.513 275.386 291.552C275.185 291.591 274.998 291.693 274.847 291.845C274.697 291.997 274.589 292.194 274.536 292.411C269.281 314.678 271.921 336.586 271.921 336.586L310.692 311.946C309.077 305.792 307.739 299.665 306.606 293.644Z" fill="white"/>
</svg>
