<svg width="281" height="71" viewBox="0 0 281 71" fill="none" xmlns="http://www.w3.org/2000/svg">
<g clip-path="url(#clip0_1_91)">
<g filter="url(#filter0_d_1_91)">
<path fill-rule="evenodd" clip-rule="evenodd" d="M26.5 0.542969C11.8645 0.542969 0 12.4074 0 27.043C0 41.6785 11.8645 53.543 26.5 53.543H228.374C229.441 57.0173 232.676 59.543 236.5 59.543C240.324 59.543 243.559 57.0173 244.626 53.543H254.5C269.136 53.543 281 41.6785 281 27.043C281 12.4074 269.136 0.542969 254.5 0.542969H26.5Z" fill="white"/>
</g>
<g filter="url(#filter1_d_1_91)">
<circle cx="259.5" cy="66.043" r="4.5" fill="white"/>
</g>
<path d="M26.4146 21.423V32.543H24.5906V21.423H26.4146ZM32.3576 28.127C32.3576 27.2203 32.539 26.4256 32.9016 25.743C33.275 25.0496 33.787 24.5163 34.4376 24.143C35.0883 23.7696 35.835 23.583 36.6776 23.583C37.7443 23.583 38.6243 23.839 39.3176 24.351C40.0216 24.8523 40.4963 25.5723 40.7416 26.511H38.7736C38.6136 26.0736 38.3576 25.7323 38.0056 25.487C37.6536 25.2416 37.211 25.119 36.6776 25.119C35.931 25.119 35.3336 25.3856 34.8856 25.919C34.4483 26.4416 34.2296 27.1776 34.2296 28.127C34.2296 29.0763 34.4483 29.8176 34.8856 30.351C35.3336 30.8843 35.931 31.151 36.6776 31.151C37.7336 31.151 38.4323 30.687 38.7736 29.759H40.7416C40.4856 30.655 40.0056 31.3696 39.3016 31.903C38.5976 32.4256 37.723 32.687 36.6776 32.687C35.835 32.687 35.0883 32.5003 34.4376 32.127C33.787 31.743 33.275 31.2096 32.9016 30.527C32.539 29.8336 32.3576 29.0336 32.3576 28.127ZM41.9514 28.095C41.9514 27.2096 42.1327 26.4256 42.4954 25.743C42.8687 25.0603 43.37 24.5323 43.9994 24.159C44.6394 23.775 45.3434 23.583 46.1114 23.583C46.8047 23.583 47.4074 23.7216 47.9194 23.999C48.442 24.2656 48.858 24.6016 49.1674 25.007V23.727H51.0074V32.543H49.1674V31.231C48.858 31.647 48.4367 31.9936 47.9034 32.271C47.37 32.5483 46.762 32.687 46.0794 32.687C45.322 32.687 44.6287 32.495 43.9994 32.111C43.37 31.7163 42.8687 31.1723 42.4954 30.479C42.1327 29.775 41.9514 28.9803 41.9514 28.095ZM49.1674 28.127C49.1674 27.519 49.0394 26.991 48.7834 26.543C48.538 26.095 48.2127 25.7536 47.8074 25.519C47.402 25.2843 46.9647 25.167 46.4954 25.167C46.026 25.167 45.5887 25.2843 45.1834 25.519C44.778 25.743 44.4474 26.079 44.1914 26.527C43.946 26.9643 43.8234 27.487 43.8234 28.095C43.8234 28.703 43.946 29.2363 44.1914 29.695C44.4474 30.1536 44.778 30.5056 45.1834 30.751C45.5994 30.9856 46.0367 31.103 46.4954 31.103C46.9647 31.103 47.402 30.9856 47.8074 30.751C48.2127 30.5163 48.538 30.175 48.7834 29.727C49.0394 29.2683 49.1674 28.735 49.1674 28.127ZM57.8511 23.583C58.5445 23.583 59.1631 23.727 59.7071 24.015C60.2618 24.303 60.6938 24.7296 61.0031 25.295C61.3125 25.8603 61.4671 26.543 61.4671 27.343V32.543H59.6591V27.615C59.6591 26.8256 59.4618 26.223 59.0671 25.807C58.6725 25.3803 58.1338 25.167 57.4511 25.167C56.7685 25.167 56.2245 25.3803 55.8191 25.807C55.4245 26.223 55.2271 26.8256 55.2271 27.615V32.543H53.4031V23.727H55.2271V24.735C55.5258 24.3723 55.9045 24.0896 56.3631 23.887C56.8325 23.6843 57.3285 23.583 57.8511 23.583ZM72.51 23.583C73.182 23.583 73.7793 23.727 74.302 24.015C74.8353 24.303 75.2513 24.7296 75.55 25.295C75.8593 25.8603 76.014 26.543 76.014 27.343V32.543H74.206V27.615C74.206 26.8256 74.0087 26.223 73.614 25.807C73.2193 25.3803 72.6807 25.167 71.998 25.167C71.3153 25.167 70.7713 25.3803 70.366 25.807C69.9713 26.223 69.774 26.8256 69.774 27.615V32.543H67.95V20.703H69.774V24.751C70.0833 24.3776 70.4727 24.0896 70.942 23.887C71.422 23.6843 71.9447 23.583 72.51 23.583ZM86.4206 27.919C86.4206 28.2496 86.3993 28.5483 86.3566 28.815H79.6206C79.674 29.519 79.9353 30.0843 80.4046 30.511C80.874 30.9376 81.45 31.151 82.1326 31.151C83.114 31.151 83.8073 30.7403 84.2126 29.919H86.1806C85.914 30.7296 85.4286 31.3963 84.7246 31.919C84.0313 32.431 83.1673 32.687 82.1326 32.687C81.29 32.687 80.5326 32.5003 79.8606 32.127C79.1993 31.743 78.6766 31.2096 78.2926 30.527C77.9193 29.8336 77.7326 29.0336 77.7326 28.127C77.7326 27.2203 77.914 26.4256 78.2766 25.743C78.65 25.0496 79.1673 24.5163 79.8286 24.143C80.5006 23.7696 81.2686 23.583 82.1326 23.583C82.9646 23.583 83.706 23.7643 84.3566 24.127C85.0073 24.4896 85.514 25.0016 85.8766 25.663C86.2393 26.3136 86.4206 27.0656 86.4206 27.919ZM84.5166 27.343C84.506 26.671 84.266 26.1323 83.7966 25.727C83.3273 25.3216 82.746 25.119 82.0526 25.119C81.4233 25.119 80.8846 25.3216 80.4366 25.727C79.9886 26.1216 79.722 26.6603 79.6366 27.343H84.5166ZM90.0396 20.703V32.543H88.2156V20.703H90.0396ZM94.2584 25.023C94.5677 24.6176 94.989 24.2763 95.5224 23.999C96.0557 23.7216 96.6584 23.583 97.3304 23.583C98.0984 23.583 98.797 23.775 99.4264 24.159C100.066 24.5323 100.568 25.0603 100.93 25.743C101.293 26.4256 101.474 27.2096 101.474 28.095C101.474 28.9803 101.293 29.775 100.93 30.479C100.568 31.1723 100.066 31.7163 99.4264 32.111C98.797 32.495 98.0984 32.687 97.3304 32.687C96.6584 32.687 96.061 32.5536 95.5384 32.287C95.0157 32.0096 94.589 31.6683 94.2584 31.263V36.735H92.4344V23.727H94.2584V25.023ZM99.6184 28.095C99.6184 27.487 99.4904 26.9643 99.2344 26.527C98.989 26.079 98.6584 25.743 98.2424 25.519C97.837 25.2843 97.3997 25.167 96.9304 25.167C96.4717 25.167 96.0344 25.2843 95.6184 25.519C95.213 25.7536 94.8824 26.095 94.6264 26.543C94.381 26.991 94.2584 27.519 94.2584 28.127C94.2584 28.735 94.381 29.2683 94.6264 29.727C94.8824 30.175 95.213 30.5163 95.6184 30.751C96.0344 30.9856 96.4717 31.103 96.9304 31.103C97.3997 31.103 97.837 30.9856 98.2424 30.751C98.6584 30.5056 98.989 30.1536 99.2344 29.695C99.4904 29.2363 99.6184 28.703 99.6184 28.095ZM118.106 23.583C118.8 23.583 119.418 23.727 119.962 24.015C120.517 24.303 120.949 24.7296 121.258 25.295C121.578 25.8603 121.738 26.543 121.738 27.343V32.543H119.93V27.615C119.93 26.8256 119.733 26.223 119.338 25.807C118.944 25.3803 118.405 25.167 117.722 25.167C117.04 25.167 116.496 25.3803 116.09 25.807C115.696 26.223 115.498 26.8256 115.498 27.615V32.543H113.69V27.615C113.69 26.8256 113.493 26.223 113.098 25.807C112.704 25.3803 112.165 25.167 111.482 25.167C110.8 25.167 110.256 25.3803 109.85 25.807C109.456 26.223 109.258 26.8256 109.258 27.615V32.543H107.434V23.727H109.258V24.735C109.557 24.3723 109.936 24.0896 110.394 23.887C110.853 23.6843 111.344 23.583 111.866 23.583C112.57 23.583 113.2 23.7323 113.754 24.031C114.309 24.3296 114.736 24.7616 115.034 25.327C115.301 24.7936 115.717 24.3723 116.282 24.063C116.848 23.743 117.456 23.583 118.106 23.583ZM123.451 28.095C123.451 27.2096 123.633 26.4256 123.995 25.743C124.369 25.0603 124.87 24.5323 125.499 24.159C126.139 23.775 126.843 23.583 127.611 23.583C128.305 23.583 128.907 23.7216 129.419 23.999C129.942 24.2656 130.358 24.6016 130.667 25.007V23.727H132.507V32.543H130.667V31.231C130.358 31.647 129.937 31.9936 129.403 32.271C128.87 32.5483 128.262 32.687 127.579 32.687C126.822 32.687 126.129 32.495 125.499 32.111C124.87 31.7163 124.369 31.1723 123.995 30.479C123.633 29.775 123.451 28.9803 123.451 28.095ZM130.667 28.127C130.667 27.519 130.539 26.991 130.283 26.543C130.038 26.095 129.713 25.7536 129.307 25.519C128.902 25.2843 128.465 25.167 127.995 25.167C127.526 25.167 127.089 25.2843 126.683 25.519C126.278 25.743 125.947 26.079 125.691 26.527C125.446 26.9643 125.323 27.487 125.323 28.095C125.323 28.703 125.446 29.2363 125.691 29.695C125.947 30.1536 126.278 30.5056 126.683 30.751C127.099 30.9856 127.537 31.103 127.995 31.103C128.465 31.103 128.902 30.9856 129.307 30.751C129.713 30.5163 130.038 30.175 130.283 29.727C130.539 29.2683 130.667 28.735 130.667 28.127ZM136.727 25.007C136.994 24.559 137.346 24.2123 137.783 23.967C138.231 23.711 138.759 23.583 139.367 23.583V25.471H138.903C138.188 25.471 137.644 25.6523 137.271 26.015C136.908 26.3776 136.727 27.007 136.727 27.903V32.543H134.903V23.727H136.727V25.007ZM144.532 28.143L148.596 32.543H146.132L142.868 28.751V32.543H141.044V20.703H142.868V27.583L146.068 23.727H148.596L144.532 28.143ZM157.983 27.919C157.983 28.2496 157.962 28.5483 157.919 28.815H151.183C151.236 29.519 151.498 30.0843 151.967 30.511C152.436 30.9376 153.012 31.151 153.695 31.151C154.676 31.151 155.37 30.7403 155.775 29.919H157.743C157.476 30.7296 156.991 31.3963 156.287 31.919C155.594 32.431 154.73 32.687 153.695 32.687C152.852 32.687 152.095 32.5003 151.423 32.127C150.762 31.743 150.239 31.2096 149.855 30.527C149.482 29.8336 149.295 29.0336 149.295 28.127C149.295 27.2203 149.476 26.4256 149.839 25.743C150.212 25.0496 150.73 24.5163 151.391 24.143C152.063 23.7696 152.831 23.583 153.695 23.583C154.527 23.583 155.268 23.7643 155.919 24.127C156.57 24.4896 157.076 25.0016 157.439 25.663C157.802 26.3136 157.983 27.0656 157.983 27.919ZM156.079 27.343C156.068 26.671 155.828 26.1323 155.359 25.727C154.89 25.3216 154.308 25.119 153.615 25.119C152.986 25.119 152.447 25.3216 151.999 25.727C151.551 26.1216 151.284 26.6603 151.199 27.343H156.079ZM161.906 25.215V30.095C161.906 30.4256 161.981 30.6656 162.13 30.815C162.29 30.9536 162.557 31.023 162.93 31.023H164.05V32.543H162.61C161.789 32.543 161.159 32.351 160.722 31.967C160.285 31.583 160.066 30.959 160.066 30.095V25.215H159.026V23.727H160.066V21.535H161.906V23.727H164.05V25.215H161.906ZM166.659 22.559C166.329 22.559 166.051 22.447 165.827 22.223C165.603 21.999 165.491 21.7216 165.491 21.391C165.491 21.0603 165.603 20.783 165.827 20.559C166.051 20.335 166.329 20.223 166.659 20.223C166.979 20.223 167.251 20.335 167.475 20.559C167.699 20.783 167.811 21.0603 167.811 21.391C167.811 21.7216 167.699 21.999 167.475 22.223C167.251 22.447 166.979 22.559 166.659 22.559ZM167.555 23.727V32.543H165.731V23.727H167.555ZM174.398 23.583C175.091 23.583 175.71 23.727 176.254 24.015C176.809 24.303 177.241 24.7296 177.55 25.295C177.859 25.8603 178.014 26.543 178.014 27.343V32.543H176.206V27.615C176.206 26.8256 176.009 26.223 175.614 25.807C175.219 25.3803 174.681 25.167 173.998 25.167C173.315 25.167 172.771 25.3803 172.366 25.807C171.971 26.223 171.774 26.8256 171.774 27.615V32.543H169.95V23.727H171.774V24.735C172.073 24.3723 172.451 24.0896 172.91 23.887C173.379 23.6843 173.875 23.583 174.398 23.583ZM183.893 23.583C184.575 23.583 185.178 23.7216 185.701 23.999C186.234 24.2656 186.65 24.6016 186.949 25.007V23.727H188.789V32.687C188.789 33.4976 188.618 34.2176 188.277 34.847C187.935 35.487 187.439 35.9883 186.789 36.351C186.149 36.7136 185.381 36.895 184.485 36.895C183.29 36.895 182.298 36.6123 181.509 36.047C180.719 35.4923 180.271 34.735 180.165 33.775H181.973C182.111 34.2336 182.405 34.6016 182.853 34.879C183.311 35.167 183.855 35.311 184.485 35.311C185.221 35.311 185.813 35.087 186.261 34.639C186.719 34.191 186.949 33.5403 186.949 32.687V31.215C186.639 31.631 186.218 31.983 185.685 32.271C185.162 32.5483 184.565 32.687 183.893 32.687C183.125 32.687 182.421 32.495 181.781 32.111C181.151 31.7163 180.65 31.1723 180.277 30.479C179.914 29.775 179.733 28.9803 179.733 28.095C179.733 27.2096 179.914 26.4256 180.277 25.743C180.65 25.0603 181.151 24.5323 181.781 24.159C182.421 23.775 183.125 23.583 183.893 23.583ZM186.949 28.127C186.949 27.519 186.821 26.991 186.565 26.543C186.319 26.095 185.994 25.7536 185.589 25.519C185.183 25.2843 184.746 25.167 184.277 25.167C183.807 25.167 183.37 25.2843 182.965 25.519C182.559 25.743 182.229 26.079 181.973 26.527C181.727 26.9643 181.605 27.487 181.605 28.095C181.605 28.703 181.727 29.2363 181.973 29.695C182.229 30.1536 182.559 30.5056 182.965 30.751C183.381 30.9856 183.818 31.103 184.277 31.103C184.746 31.103 185.183 30.9856 185.589 30.751C185.994 30.5163 186.319 30.175 186.565 29.727C186.821 29.2683 186.949 28.735 186.949 28.127ZM198.541 32.687C197.847 32.687 197.223 32.5643 196.669 32.319C196.125 32.063 195.693 31.7216 195.373 31.295C195.053 30.8576 194.882 30.3723 194.861 29.839H196.749C196.781 30.2123 196.957 30.527 197.277 30.783C197.607 31.0283 198.018 31.151 198.509 31.151C199.021 31.151 199.415 31.055 199.693 30.863C199.981 30.6603 200.125 30.4043 200.125 30.095C200.125 29.7643 199.965 29.519 199.645 29.359C199.335 29.199 198.839 29.023 198.157 28.831C197.495 28.6496 196.957 28.4736 196.541 28.303C196.125 28.1323 195.762 27.871 195.453 27.519C195.154 27.167 195.005 26.703 195.005 26.127C195.005 25.6576 195.143 25.231 195.421 24.847C195.698 24.4523 196.093 24.143 196.605 23.919C197.127 23.695 197.725 23.583 198.397 23.583C199.399 23.583 200.205 23.839 200.813 24.351C201.431 24.8523 201.762 25.5403 201.805 26.415H199.981C199.949 26.0203 199.789 25.7056 199.501 25.471C199.213 25.2363 198.823 25.119 198.333 25.119C197.853 25.119 197.485 25.2096 197.229 25.391C196.973 25.5723 196.845 25.8123 196.845 26.111C196.845 26.3456 196.93 26.543 197.101 26.703C197.271 26.863 197.479 26.991 197.725 27.087C197.97 27.1723 198.333 27.2843 198.813 27.423C199.453 27.5936 199.975 27.7696 200.381 27.951C200.797 28.1216 201.154 28.3776 201.453 28.719C201.751 29.0603 201.906 29.5136 201.917 30.079C201.917 30.5803 201.778 31.0283 201.501 31.423C201.223 31.8176 200.829 32.127 200.317 32.351C199.815 32.575 199.223 32.687 198.541 32.687ZM206.016 25.215V30.095C206.016 30.4256 206.09 30.6656 206.24 30.815C206.4 30.9536 206.666 31.023 207.04 31.023H208.16V32.543H206.72C205.898 32.543 205.269 32.351 204.832 31.967C204.394 31.583 204.176 30.959 204.176 30.095V25.215H203.136V23.727H204.176V21.535H206.016V23.727H208.16V25.215H206.016ZM211.665 25.007C211.931 24.559 212.283 24.2123 212.721 23.967C213.169 23.711 213.697 23.583 214.305 23.583V25.471H213.841C213.126 25.471 212.582 25.6523 212.209 26.015C211.846 26.3776 211.665 27.007 211.665 27.903V32.543H209.841V23.727H211.665V25.007ZM215.373 28.095C215.373 27.2096 215.555 26.4256 215.917 25.743C216.291 25.0603 216.792 24.5323 217.421 24.159C218.061 23.775 218.765 23.583 219.533 23.583C220.227 23.583 220.829 23.7216 221.341 23.999C221.864 24.2656 222.28 24.6016 222.589 25.007V23.727H224.429V32.543H222.589V31.231C222.28 31.647 221.859 31.9936 221.325 32.271C220.792 32.5483 220.184 32.687 219.501 32.687C218.744 32.687 218.051 32.495 217.421 32.111C216.792 31.7163 216.291 31.1723 215.917 30.479C215.555 29.775 215.373 28.9803 215.373 28.095ZM222.589 28.127C222.589 27.519 222.461 26.991 222.205 26.543C221.96 26.095 221.635 25.7536 221.229 25.519C220.824 25.2843 220.387 25.167 219.917 25.167C219.448 25.167 219.011 25.2843 218.605 25.519C218.2 25.743 217.869 26.079 217.613 26.527C217.368 26.9643 217.245 27.487 217.245 28.095C217.245 28.703 217.368 29.2363 217.613 29.695C217.869 30.1536 218.2 30.5056 218.605 30.751C219.021 30.9856 219.459 31.103 219.917 31.103C220.387 31.103 220.824 30.9856 221.229 30.751C221.635 30.5163 221.96 30.175 222.205 29.727C222.461 29.2683 222.589 28.735 222.589 28.127ZM228.953 25.215V30.095C228.953 30.4256 229.028 30.6656 229.177 30.815C229.337 30.9536 229.604 31.023 229.977 31.023H231.097V32.543H229.657C228.836 32.543 228.206 32.351 227.769 31.967C227.332 31.583 227.113 30.959 227.113 30.095V25.215H226.073V23.727H227.113V21.535H228.953V23.727H231.097V25.215H228.953ZM240.858 27.919C240.858 28.2496 240.837 28.5483 240.794 28.815H234.058C234.111 29.519 234.373 30.0843 234.842 30.511C235.311 30.9376 235.887 31.151 236.57 31.151C237.551 31.151 238.245 30.7403 238.65 29.919H240.618C240.351 30.7296 239.866 31.3963 239.162 31.919C238.469 32.431 237.605 32.687 236.57 32.687C235.727 32.687 234.97 32.5003 234.298 32.127C233.637 31.743 233.114 31.2096 232.73 30.527C232.357 29.8336 232.17 29.0336 232.17 28.127C232.17 27.2203 232.351 26.4256 232.714 25.743C233.087 25.0496 233.605 24.5163 234.266 24.143C234.938 23.7696 235.706 23.583 236.57 23.583C237.402 23.583 238.143 23.7643 238.794 24.127C239.445 24.4896 239.951 25.0016 240.314 25.663C240.677 26.3136 240.858 27.0656 240.858 27.919ZM238.954 27.343C238.943 26.671 238.703 26.1323 238.234 25.727C237.765 25.3216 237.183 25.119 236.49 25.119C235.861 25.119 235.322 25.3216 234.874 25.727C234.426 26.1216 234.159 26.6603 234.074 27.343H238.954ZM246.205 23.583C246.888 23.583 247.49 23.7216 248.013 23.999C248.546 24.2656 248.962 24.6016 249.261 25.007V23.727H251.101V32.687C251.101 33.4976 250.93 34.2176 250.589 34.847C250.248 35.487 249.752 35.9883 249.101 36.351C248.461 36.7136 247.693 36.895 246.797 36.895C245.602 36.895 244.61 36.6123 243.821 36.047C243.032 35.4923 242.584 34.735 242.477 33.775H244.285C244.424 34.2336 244.717 34.6016 245.165 34.879C245.624 35.167 246.168 35.311 246.797 35.311C247.533 35.311 248.125 35.087 248.573 34.639C249.032 34.191 249.261 33.5403 249.261 32.687V31.215C248.952 31.631 248.53 31.983 247.997 32.271C247.474 32.5483 246.877 32.687 246.205 32.687C245.437 32.687 244.733 32.495 244.093 32.111C243.464 31.7163 242.962 31.1723 242.589 30.479C242.226 29.775 242.045 28.9803 242.045 28.095C242.045 27.2096 242.226 26.4256 242.589 25.743C242.962 25.0603 243.464 24.5323 244.093 24.159C244.733 23.775 245.437 23.583 246.205 23.583ZM249.261 28.127C249.261 27.519 249.133 26.991 248.877 26.543C248.632 26.095 248.306 25.7536 247.901 25.519C247.496 25.2843 247.058 25.167 246.589 25.167C246.12 25.167 245.682 25.2843 245.277 25.519C244.872 25.743 244.541 26.079 244.285 26.527C244.04 26.9643 243.917 27.487 243.917 28.095C243.917 28.703 244.04 29.2363 244.285 29.695C244.541 30.1536 244.872 30.5056 245.277 30.751C245.693 30.9856 246.13 31.103 246.589 31.103C247.058 31.103 247.496 30.9856 247.901 30.751C248.306 30.5163 248.632 30.175 248.877 29.727C249.133 29.2683 249.261 28.735 249.261 28.127ZM261.433 23.727L256.025 36.687H254.137L255.929 32.399L252.457 23.727H254.489L256.969 30.447L259.545 23.727H261.433Z" fill="#2F281E"/>
</g>
<defs>
<filter id="filter0_d_1_91" x="-8" y="-5.45703" width="297" height="75" filterUnits="userSpaceOnUse" color-interpolation-filters="sRGB">
<feFlood flood-opacity="0" result="BackgroundImageFix"/>
<feColorMatrix in="SourceAlpha" type="matrix" values="0 0 0 0 0 0 0 0 0 0 0 0 0 0 0 0 0 0 127 0" result="hardAlpha"/>
<feOffset dy="2"/>
<feGaussianBlur stdDeviation="4"/>
<feColorMatrix type="matrix" values="0 0 0 0 0.337255 0 0 0 0 0.458824 0 0 0 0 0.572549 0 0 0 0.1 0"/>
<feBlend mode="normal" in2="BackgroundImageFix" result="effect1_dropShadow_1_91"/>
<feBlend mode="normal" in="SourceGraphic" in2="effect1_dropShadow_1_91" result="shape"/>
</filter>
<filter id="filter1_d_1_91" x="240" y="48.543" width="39" height="39" filterUnits="userSpaceOnUse" color-interpolation-filters="sRGB">
<feFlood flood-opacity="0" result="BackgroundImageFix"/>
<feColorMatrix in="SourceAlpha" type="matrix" values="0 0 0 0 0 0 0 0 0 0 0 0 0 0 0 0 0 0 127 0" result="hardAlpha"/>
<feOffset dy="2"/>
<feGaussianBlur stdDeviation="7.5"/>
<feColorMatrix type="matrix" values="0 0 0 0 0.0901961 0 0 0 0 0.227451 0 0 0 0 0.337255 0 0 0 0.1 0"/>
<feBlend mode="normal" in2="BackgroundImageFix" result="effect1_dropShadow_1_91"/>
<feBlend mode="normal" in="SourceGraphic" in2="effect1_dropShadow_1_91" result="shape"/>
</filter>
<clipPath id="clip0_1_91">
<rect width="281" height="70" fill="white" transform="translate(0 0.542969)"/>
</clipPath>
</defs>
</svg>
