<svg width="263" height="71" viewBox="0 0 263 71" fill="none" xmlns="http://www.w3.org/2000/svg">
<g clip-path="url(#clip0_1_107)">
<g filter="url(#filter0_d_1_107)">
<path fill-rule="evenodd" clip-rule="evenodd" d="M26.5 0.542969C11.8645 0.542969 0 12.4074 0 27.043C0 41.6785 11.8645 53.543 26.5 53.543H191.374C192.441 57.0173 195.676 59.543 199.5 59.543C203.324 59.543 206.559 57.0173 207.626 53.543H236.5C251.136 53.543 263 41.6785 263 27.043C263 12.4074 251.136 0.542969 236.5 0.542969H26.5Z" fill="white"/>
</g>
<g filter="url(#filter1_d_1_107)">
<circle cx="222.5" cy="66.043" r="4.5" fill="white"/>
</g>
<path d="M36.6178 22.423V33.543H34.7938V22.423H36.6178ZM42.5608 29.127C42.5608 28.2203 42.7421 27.4256 43.1048 26.743C43.4781 26.0496 43.9901 25.5163 44.6408 25.143C45.2914 24.7696 46.0381 24.583 46.8808 24.583C47.9474 24.583 48.8274 24.839 49.5208 25.351C50.2248 25.8523 50.6994 26.5723 50.9448 27.511H48.9768C48.8168 27.0736 48.5608 26.7323 48.2088 26.487C47.8568 26.2416 47.4141 26.119 46.8808 26.119C46.1341 26.119 45.5368 26.3856 45.0888 26.919C44.6514 27.4416 44.4328 28.1776 44.4328 29.127C44.4328 30.0763 44.6514 30.8176 45.0888 31.351C45.5368 31.8843 46.1341 32.151 46.8808 32.151C47.9368 32.151 48.6354 31.687 48.9768 30.759H50.9448C50.6888 31.655 50.2088 32.3696 49.5048 32.903C48.8008 33.4256 47.9261 33.687 46.8808 33.687C46.0381 33.687 45.2914 33.5003 44.6408 33.127C43.9901 32.743 43.4781 32.2096 43.1048 31.527C42.7421 30.8336 42.5608 30.0336 42.5608 29.127ZM52.1545 29.095C52.1545 28.2096 52.3358 27.4256 52.6985 26.743C53.0718 26.0603 53.5732 25.5323 54.2025 25.159C54.8425 24.775 55.5465 24.583 56.3145 24.583C57.0078 24.583 57.6105 24.7216 58.1225 24.999C58.6452 25.2656 59.0612 25.6016 59.3705 26.007V24.727H61.2105V33.543H59.3705V32.231C59.0612 32.647 58.6398 32.9936 58.1065 33.271C57.5732 33.5483 56.9652 33.687 56.2825 33.687C55.5252 33.687 54.8318 33.495 54.2025 33.111C53.5732 32.7163 53.0718 32.1723 52.6985 31.479C52.3358 30.775 52.1545 29.9803 52.1545 29.095ZM59.3705 29.127C59.3705 28.519 59.2425 27.991 58.9865 27.543C58.7412 27.095 58.4158 26.7536 58.0105 26.519C57.6052 26.2843 57.1678 26.167 56.6985 26.167C56.2292 26.167 55.7918 26.2843 55.3865 26.519C54.9812 26.743 54.6505 27.079 54.3945 27.527C54.1492 27.9643 54.0265 28.487 54.0265 29.095C54.0265 29.703 54.1492 30.2363 54.3945 30.695C54.6505 31.1536 54.9812 31.5056 55.3865 31.751C55.8025 31.9856 56.2398 32.103 56.6985 32.103C57.1678 32.103 57.6052 31.9856 58.0105 31.751C58.4158 31.5163 58.7412 31.175 58.9865 30.727C59.2425 30.2683 59.3705 29.735 59.3705 29.127ZM68.0543 24.583C68.7476 24.583 69.3663 24.727 69.9103 25.015C70.4649 25.303 70.8969 25.7296 71.2063 26.295C71.5156 26.8603 71.6703 27.543 71.6703 28.343V33.543H69.8623V28.615C69.8623 27.8256 69.6649 27.223 69.2703 26.807C68.8756 26.3803 68.3369 26.167 67.6543 26.167C66.9716 26.167 66.4276 26.3803 66.0223 26.807C65.6276 27.223 65.4303 27.8256 65.4303 28.615V33.543H63.6063V24.727H65.4303V25.735C65.7289 25.3723 66.1076 25.0896 66.5663 24.887C67.0356 24.6843 67.5316 24.583 68.0543 24.583ZM77.5451 29.095C77.5451 28.2096 77.7265 27.4256 78.0891 26.743C78.4625 26.0603 78.9638 25.5323 79.5931 25.159C80.2331 24.775 80.9425 24.583 81.7211 24.583C82.2971 24.583 82.8625 24.711 83.4171 24.967C83.9825 25.2123 84.4305 25.543 84.7611 25.959V21.703H86.6011V33.543H84.7611V32.215C84.4625 32.6416 84.0465 32.9936 83.5131 33.271C82.9905 33.5483 82.3878 33.687 81.7051 33.687C80.9371 33.687 80.2331 33.495 79.5931 33.111C78.9638 32.7163 78.4625 32.1723 78.0891 31.479C77.7265 30.775 77.5451 29.9803 77.5451 29.095ZM84.7611 29.127C84.7611 28.519 84.6331 27.991 84.3771 27.543C84.1318 27.095 83.8065 26.7536 83.4011 26.519C82.9958 26.2843 82.5585 26.167 82.0891 26.167C81.6198 26.167 81.1825 26.2843 80.7771 26.519C80.3718 26.743 80.0411 27.079 79.7851 27.527C79.5398 27.9643 79.4171 28.487 79.4171 29.095C79.4171 29.703 79.5398 30.2363 79.7851 30.695C80.0411 31.1536 80.3718 31.5056 80.7771 31.751C81.1931 31.9856 81.6305 32.103 82.0891 32.103C82.5585 32.103 82.9958 31.9856 83.4011 31.751C83.8065 31.5163 84.1318 31.175 84.3771 30.727C84.6331 30.2683 84.7611 29.735 84.7611 29.127ZM97.0769 28.919C97.0769 29.2496 97.0555 29.5483 97.0129 29.815H90.2769C90.3302 30.519 90.5915 31.0843 91.0609 31.511C91.5302 31.9376 92.1062 32.151 92.7889 32.151C93.7702 32.151 94.4635 31.7403 94.8689 30.919H96.8369C96.5702 31.7296 96.0849 32.3963 95.3809 32.919C94.6875 33.431 93.8235 33.687 92.7889 33.687C91.9462 33.687 91.1889 33.5003 90.5169 33.127C89.8555 32.743 89.3329 32.2096 88.9489 31.527C88.5755 30.8336 88.3889 30.0336 88.3889 29.127C88.3889 28.2203 88.5702 27.4256 88.9329 26.743C89.3062 26.0496 89.8235 25.5163 90.4849 25.143C91.1569 24.7696 91.9249 24.583 92.7889 24.583C93.6209 24.583 94.3622 24.7643 95.0129 25.127C95.6635 25.4896 96.1702 26.0016 96.5329 26.663C96.8955 27.3136 97.0769 28.0656 97.0769 28.919ZM95.1729 28.343C95.1622 27.671 94.9222 27.1323 94.4529 26.727C93.9835 26.3216 93.4022 26.119 92.7089 26.119C92.0795 26.119 91.5409 26.3216 91.0929 26.727C90.6449 27.1216 90.3782 27.6603 90.2929 28.343H95.1729ZM102.072 33.687C101.379 33.687 100.755 33.5643 100.2 33.319C99.6559 33.063 99.2239 32.7216 98.9039 32.295C98.5839 31.8576 98.4132 31.3723 98.3919 30.839H100.28C100.312 31.2123 100.488 31.527 100.808 31.783C101.139 32.0283 101.549 32.151 102.04 32.151C102.552 32.151 102.947 32.055 103.224 31.863C103.512 31.6603 103.656 31.4043 103.656 31.095C103.656 30.7643 103.496 30.519 103.176 30.359C102.867 30.199 102.371 30.023 101.688 29.831C101.027 29.6496 100.488 29.4736 100.072 29.303C99.6559 29.1323 99.2932 28.871 98.9839 28.519C98.6852 28.167 98.5359 27.703 98.5359 27.127C98.5359 26.6576 98.6745 26.231 98.9519 25.847C99.2292 25.4523 99.6239 25.143 100.136 24.919C100.659 24.695 101.256 24.583 101.928 24.583C102.931 24.583 103.736 24.839 104.344 25.351C104.963 25.8523 105.293 26.5403 105.336 27.415H103.512C103.48 27.0203 103.32 26.7056 103.032 26.471C102.744 26.2363 102.355 26.119 101.864 26.119C101.384 26.119 101.016 26.2096 100.76 26.391C100.504 26.5723 100.376 26.8123 100.376 27.111C100.376 27.3456 100.461 27.543 100.632 27.703C100.803 27.863 101.011 27.991 101.256 28.087C101.501 28.1723 101.864 28.2843 102.344 28.423C102.984 28.5936 103.507 28.7696 103.912 28.951C104.328 29.1216 104.685 29.3776 104.984 29.719C105.283 30.0603 105.437 30.5136 105.448 31.079C105.448 31.5803 105.309 32.0283 105.032 32.423C104.755 32.8176 104.36 33.127 103.848 33.351C103.347 33.575 102.755 33.687 102.072 33.687ZM108.347 23.559C108.016 23.559 107.739 23.447 107.515 23.223C107.291 22.999 107.179 22.7216 107.179 22.391C107.179 22.0603 107.291 21.783 107.515 21.559C107.739 21.335 108.016 21.223 108.347 21.223C108.667 21.223 108.939 21.335 109.163 21.559C109.387 21.783 109.499 22.0603 109.499 22.391C109.499 22.7216 109.387 22.999 109.163 23.223C108.939 23.447 108.667 23.559 108.347 23.559ZM109.243 24.727V33.543H107.419V24.727H109.243ZM115.19 24.583C115.872 24.583 116.475 24.7216 116.998 24.999C117.531 25.2656 117.947 25.6016 118.246 26.007V24.727H120.086V33.687C120.086 34.4976 119.915 35.2176 119.574 35.847C119.232 36.487 118.736 36.9883 118.086 37.351C117.446 37.7136 116.678 37.895 115.782 37.895C114.587 37.895 113.595 37.6123 112.806 37.047C112.016 36.4923 111.568 35.735 111.462 34.775H113.27C113.408 35.2336 113.702 35.6016 114.15 35.879C114.608 36.167 115.152 36.311 115.782 36.311C116.518 36.311 117.11 36.087 117.558 35.639C118.016 35.191 118.246 34.5403 118.246 33.687V32.215C117.936 32.631 117.515 32.983 116.982 33.271C116.459 33.5483 115.862 33.687 115.19 33.687C114.422 33.687 113.718 33.495 113.078 33.111C112.448 32.7163 111.947 32.1723 111.574 31.479C111.211 30.775 111.03 29.9803 111.03 29.095C111.03 28.2096 111.211 27.4256 111.574 26.743C111.947 26.0603 112.448 25.5323 113.078 25.159C113.718 24.775 114.422 24.583 115.19 24.583ZM118.246 29.127C118.246 28.519 118.118 27.991 117.862 27.543C117.616 27.095 117.291 26.7536 116.886 26.519C116.48 26.2843 116.043 26.167 115.574 26.167C115.104 26.167 114.667 26.2843 114.262 26.519C113.856 26.743 113.526 27.079 113.27 27.527C113.024 27.9643 112.902 28.487 112.902 29.095C112.902 29.703 113.024 30.2363 113.27 30.695C113.526 31.1536 113.856 31.5056 114.262 31.751C114.678 31.9856 115.115 32.103 115.574 32.103C116.043 32.103 116.48 31.9856 116.886 31.751C117.291 31.5163 117.616 31.175 117.862 30.727C118.118 30.2683 118.246 29.735 118.246 29.127ZM126.929 24.583C127.623 24.583 128.241 24.727 128.785 25.015C129.34 25.303 129.772 25.7296 130.081 26.295C130.391 26.8603 130.545 27.543 130.545 28.343V33.543H128.737V28.615C128.737 27.8256 128.54 27.223 128.145 26.807C127.751 26.3803 127.212 26.167 126.529 26.167C125.847 26.167 125.303 26.3803 124.897 26.807C124.503 27.223 124.305 27.8256 124.305 28.615V33.543H122.481V24.727H124.305V25.735C124.604 25.3723 124.983 25.0896 125.441 24.887C125.911 24.6843 126.407 24.583 126.929 24.583ZM144.964 24.727L139.556 37.687H137.668L139.46 33.399L135.988 24.727H138.02L140.5 31.447L143.076 24.727H144.964ZM150.165 33.687C149.333 33.687 148.581 33.5003 147.909 33.127C147.237 32.743 146.709 32.2096 146.325 31.527C145.941 30.8336 145.749 30.0336 145.749 29.127C145.749 28.231 145.946 27.4363 146.341 26.743C146.735 26.0496 147.274 25.5163 147.957 25.143C148.639 24.7696 149.402 24.583 150.245 24.583C151.087 24.583 151.85 24.7696 152.533 25.143C153.215 25.5163 153.754 26.0496 154.149 26.743C154.543 27.4363 154.741 28.231 154.741 29.127C154.741 30.023 154.538 30.8176 154.133 31.511C153.727 32.2043 153.173 32.743 152.469 33.127C151.775 33.5003 151.007 33.687 150.165 33.687ZM150.165 32.103C150.634 32.103 151.071 31.991 151.477 31.767C151.893 31.543 152.229 31.207 152.485 30.759C152.741 30.311 152.869 29.767 152.869 29.127C152.869 28.487 152.746 27.9483 152.501 27.511C152.255 27.063 151.93 26.727 151.525 26.503C151.119 26.279 150.682 26.167 150.213 26.167C149.743 26.167 149.306 26.279 148.901 26.503C148.506 26.727 148.191 27.063 147.957 27.511C147.722 27.9483 147.605 28.487 147.605 29.127C147.605 30.0763 147.845 30.8123 148.325 31.335C148.815 31.847 149.429 32.103 150.165 32.103ZM164.528 24.727V33.543H162.704V32.503C162.416 32.8656 162.037 33.1536 161.568 33.367C161.109 33.5696 160.618 33.671 160.096 33.671C159.402 33.671 158.778 33.527 158.224 33.239C157.68 32.951 157.248 32.5243 156.928 31.959C156.618 31.3936 156.464 30.711 156.464 29.911V24.727H158.272V29.639C158.272 30.4283 158.469 31.0363 158.864 31.463C159.258 31.879 159.797 32.087 160.48 32.087C161.162 32.087 161.701 31.879 162.096 31.463C162.501 31.0363 162.704 30.4283 162.704 29.639V24.727H164.528ZM182.931 24.727L180.195 33.543H178.275L176.499 27.031L174.723 33.543H172.803L170.051 24.727H171.907L173.747 31.815L175.619 24.727H177.523L179.315 31.783L181.139 24.727H182.931ZM192.374 28.919C192.374 29.2496 192.352 29.5483 192.31 29.815H185.574C185.627 30.519 185.888 31.0843 186.358 31.511C186.827 31.9376 187.403 32.151 188.086 32.151C189.067 32.151 189.76 31.7403 190.166 30.919H192.134C191.867 31.7296 191.382 32.3963 190.678 32.919C189.984 33.431 189.12 33.687 188.086 33.687C187.243 33.687 186.486 33.5003 185.814 33.127C185.152 32.743 184.63 32.2096 184.246 31.527C183.872 30.8336 183.686 30.0336 183.686 29.127C183.686 28.2203 183.867 27.4256 184.23 26.743C184.603 26.0496 185.12 25.5163 185.782 25.143C186.454 24.7696 187.222 24.583 188.086 24.583C188.918 24.583 189.659 24.7643 190.31 25.127C190.96 25.4896 191.467 26.0016 191.83 26.663C192.192 27.3136 192.374 28.0656 192.374 28.919ZM190.47 28.343C190.459 27.671 190.219 27.1323 189.75 26.727C189.28 26.3216 188.699 26.119 188.006 26.119C187.376 26.119 186.838 26.3216 186.39 26.727C185.942 27.1216 185.675 27.6603 185.59 28.343H190.47ZM195.993 26.039C196.302 25.6123 196.723 25.2656 197.257 24.999C197.801 24.7216 198.403 24.583 199.065 24.583C199.843 24.583 200.547 24.7696 201.177 25.143C201.806 25.5163 202.302 26.0496 202.665 26.743C203.027 27.4256 203.209 28.2096 203.209 29.095C203.209 29.9803 203.027 30.775 202.665 31.479C202.302 32.1723 201.801 32.7163 201.161 33.111C200.531 33.495 199.833 33.687 199.065 33.687C198.382 33.687 197.774 33.5536 197.241 33.287C196.718 33.0203 196.302 32.679 195.993 32.263V33.543H194.169V21.703H195.993V26.039ZM201.353 29.095C201.353 28.487 201.225 27.9643 200.969 27.527C200.723 27.079 200.393 26.743 199.977 26.519C199.571 26.2843 199.134 26.167 198.665 26.167C198.206 26.167 197.769 26.2843 197.353 26.519C196.947 26.7536 196.617 27.095 196.361 27.543C196.115 27.991 195.993 28.519 195.993 29.127C195.993 29.735 196.115 30.2683 196.361 30.727C196.617 31.175 196.947 31.5163 197.353 31.751C197.769 31.9856 198.206 32.103 198.665 32.103C199.134 32.103 199.571 31.9856 199.977 31.751C200.393 31.5056 200.723 31.1536 200.969 30.695C201.225 30.2363 201.353 29.703 201.353 29.095ZM208.213 33.687C207.519 33.687 206.895 33.5643 206.341 33.319C205.797 33.063 205.365 32.7216 205.045 32.295C204.725 31.8576 204.554 31.3723 204.533 30.839H206.421C206.453 31.2123 206.629 31.527 206.949 31.783C207.279 32.0283 207.69 32.151 208.181 32.151C208.693 32.151 209.087 32.055 209.365 31.863C209.653 31.6603 209.797 31.4043 209.797 31.095C209.797 30.7643 209.637 30.519 209.317 30.359C209.007 30.199 208.511 30.023 207.829 29.831C207.167 29.6496 206.629 29.4736 206.213 29.303C205.797 29.1323 205.434 28.871 205.125 28.519C204.826 28.167 204.677 27.703 204.677 27.127C204.677 26.6576 204.815 26.231 205.093 25.847C205.37 25.4523 205.765 25.143 206.277 24.919C206.799 24.695 207.397 24.583 208.069 24.583C209.071 24.583 209.877 24.839 210.485 25.351C211.103 25.8523 211.434 26.5403 211.477 27.415H209.653C209.621 27.0203 209.461 26.7056 209.173 26.471C208.885 26.2363 208.495 26.119 208.005 26.119C207.525 26.119 207.157 26.2096 206.901 26.391C206.645 26.5723 206.517 26.8123 206.517 27.111C206.517 27.3456 206.602 27.543 206.773 27.703C206.943 27.863 207.151 27.991 207.397 28.087C207.642 28.1723 208.005 28.2843 208.485 28.423C209.125 28.5936 209.647 28.7696 210.053 28.951C210.469 29.1216 210.826 29.3776 211.125 29.719C211.423 30.0603 211.578 30.5136 211.589 31.079C211.589 31.5803 211.45 32.0283 211.173 32.423C210.895 32.8176 210.501 33.127 209.989 33.351C209.487 33.575 208.895 33.687 208.213 33.687ZM214.487 23.559C214.157 23.559 213.879 23.447 213.655 23.223C213.431 22.999 213.319 22.7216 213.319 22.391C213.319 22.0603 213.431 21.783 213.655 21.559C213.879 21.335 214.157 21.223 214.487 21.223C214.807 21.223 215.079 21.335 215.303 21.559C215.527 21.783 215.639 22.0603 215.639 22.391C215.639 22.7216 215.527 22.999 215.303 23.223C215.079 23.447 214.807 23.559 214.487 23.559ZM215.383 24.727V33.543H213.559V24.727H215.383ZM219.906 26.215V31.095C219.906 31.4256 219.981 31.6656 220.13 31.815C220.29 31.9536 220.557 32.023 220.93 32.023H222.05V33.543H220.61C219.789 33.543 219.159 33.351 218.722 32.967C218.285 32.583 218.066 31.959 218.066 31.095V26.215H217.026V24.727H218.066V22.535H219.906V24.727H222.05V26.215H219.906ZM231.811 28.919C231.811 29.2496 231.79 29.5483 231.747 29.815H225.011C225.065 30.519 225.326 31.0843 225.795 31.511C226.265 31.9376 226.841 32.151 227.523 32.151C228.505 32.151 229.198 31.7403 229.603 30.919H231.571C231.305 31.7296 230.819 32.3963 230.115 32.919C229.422 33.431 228.558 33.687 227.523 33.687C226.681 33.687 225.923 33.5003 225.251 33.127C224.59 32.743 224.067 32.2096 223.683 31.527C223.31 30.8336 223.123 30.0336 223.123 29.127C223.123 28.2203 223.305 27.4256 223.667 26.743C224.041 26.0496 224.558 25.5163 225.219 25.143C225.891 24.7696 226.659 24.583 227.523 24.583C228.355 24.583 229.097 24.7643 229.747 25.127C230.398 25.4896 230.905 26.0016 231.267 26.663C231.63 27.3136 231.811 28.0656 231.811 28.919ZM229.907 28.343C229.897 27.671 229.657 27.1323 229.187 26.727C228.718 26.3216 228.137 26.119 227.443 26.119C226.814 26.119 226.275 26.3216 225.827 26.727C225.379 27.1216 225.113 27.6603 225.027 28.343H229.907Z" fill="#2F281E"/>
</g>
<defs>
<filter id="filter0_d_1_107" x="-8" y="-5.45703" width="279" height="75" filterUnits="userSpaceOnUse" color-interpolation-filters="sRGB">
<feFlood flood-opacity="0" result="BackgroundImageFix"/>
<feColorMatrix in="SourceAlpha" type="matrix" values="0 0 0 0 0 0 0 0 0 0 0 0 0 0 0 0 0 0 127 0" result="hardAlpha"/>
<feOffset dy="2"/>
<feGaussianBlur stdDeviation="4"/>
<feColorMatrix type="matrix" values="0 0 0 0 0.337255 0 0 0 0 0.458824 0 0 0 0 0.572549 0 0 0 0.1 0"/>
<feBlend mode="normal" in2="BackgroundImageFix" result="effect1_dropShadow_1_107"/>
<feBlend mode="normal" in="SourceGraphic" in2="effect1_dropShadow_1_107" result="shape"/>
</filter>
<filter id="filter1_d_1_107" x="203" y="48.543" width="39" height="39" filterUnits="userSpaceOnUse" color-interpolation-filters="sRGB">
<feFlood flood-opacity="0" result="BackgroundImageFix"/>
<feColorMatrix in="SourceAlpha" type="matrix" values="0 0 0 0 0 0 0 0 0 0 0 0 0 0 0 0 0 0 127 0" result="hardAlpha"/>
<feOffset dy="2"/>
<feGaussianBlur stdDeviation="7.5"/>
<feColorMatrix type="matrix" values="0 0 0 0 0.0901961 0 0 0 0 0.227451 0 0 0 0 0.337255 0 0 0 0.1 0"/>
<feBlend mode="normal" in2="BackgroundImageFix" result="effect1_dropShadow_1_107"/>
<feBlend mode="normal" in="SourceGraphic" in2="effect1_dropShadow_1_107" result="shape"/>
</filter>
<clipPath id="clip0_1_107">
<rect width="263" height="70" fill="white" transform="translate(0 0.542969)"/>
</clipPath>
</defs>
</svg>
