<svg width="274" height="70" viewBox="0 0 274 70" fill="none" xmlns="http://www.w3.org/2000/svg">
<g clip-path="url(#clip0_1_75)">
<g filter="url(#filter0_d_1_75)">
<path fill-rule="evenodd" clip-rule="evenodd" d="M26.5 0C11.8645 0 0 11.8645 0 26.5C0 41.1355 11.8645 53 26.5 53H32.3736C33.4412 56.4743 36.6756 59 40.5 59C44.3244 59 47.5588 56.4743 48.6264 53H247.5C262.136 53 274 41.1355 274 26.5C274 11.8645 262.136 0 247.5 0H26.5Z" fill="white"/>
</g>
<g filter="url(#filter1_d_1_75)">
<circle cx="25.5" cy="65.5" r="4.5" fill="white"/>
</g>
<path d="M28.024 21.88V33H26.2V21.88H28.024ZM33.967 28.584C33.967 27.6773 34.1483 26.8827 34.511 26.2C34.8843 25.5067 35.3963 24.9733 36.047 24.6C36.6977 24.2267 37.4443 24.04 38.287 24.04C39.3537 24.04 40.2337 24.296 40.927 24.808C41.631 25.3093 42.1057 26.0293 42.351 26.968H40.383C40.223 26.5307 39.967 26.1893 39.615 25.944C39.263 25.6987 38.8203 25.576 38.287 25.576C37.5403 25.576 36.943 25.8427 36.495 26.376C36.0577 26.8987 35.839 27.6347 35.839 28.584C35.839 29.5333 36.0577 30.2747 36.495 30.808C36.943 31.3413 37.5403 31.608 38.287 31.608C39.343 31.608 40.0417 31.144 40.383 30.216H42.351C42.095 31.112 41.615 31.8267 40.911 32.36C40.207 32.8827 39.3323 33.144 38.287 33.144C37.4443 33.144 36.6977 32.9573 36.047 32.584C35.3963 32.2 34.8843 31.6667 34.511 30.984C34.1483 30.2907 33.967 29.4907 33.967 28.584ZM43.5608 28.552C43.5608 27.6667 43.7421 26.8827 44.1048 26.2C44.4781 25.5173 44.9794 24.9893 45.6088 24.616C46.2488 24.232 46.9528 24.04 47.7208 24.04C48.4141 24.04 49.0168 24.1787 49.5288 24.456C50.0514 24.7227 50.4674 25.0587 50.7768 25.464V24.184H52.6168V33H50.7768V31.688C50.4674 32.104 50.0461 32.4507 49.5128 32.728C48.9794 33.0053 48.3714 33.144 47.6888 33.144C46.9314 33.144 46.2381 32.952 45.6088 32.568C44.9794 32.1733 44.4781 31.6293 44.1048 30.936C43.7421 30.232 43.5608 29.4373 43.5608 28.552ZM50.7768 28.584C50.7768 27.976 50.6488 27.448 50.3928 27C50.1474 26.552 49.8221 26.2107 49.4168 25.976C49.0114 25.7413 48.5741 25.624 48.1048 25.624C47.6354 25.624 47.1981 25.7413 46.7928 25.976C46.3874 26.2 46.0568 26.536 45.8008 26.984C45.5554 27.4213 45.4328 27.944 45.4328 28.552C45.4328 29.16 45.5554 29.6933 45.8008 30.152C46.0568 30.6107 46.3874 30.9627 46.7928 31.208C47.2088 31.4427 47.6461 31.56 48.1048 31.56C48.5741 31.56 49.0114 31.4427 49.4168 31.208C49.8221 30.9733 50.1474 30.632 50.3928 30.184C50.6488 29.7253 50.7768 29.192 50.7768 28.584ZM59.4605 24.04C60.1538 24.04 60.7725 24.184 61.3165 24.472C61.8712 24.76 62.3032 25.1867 62.6125 25.752C62.9218 26.3173 63.0765 27 63.0765 27.8V33H61.2685V28.072C61.2685 27.2827 61.0712 26.68 60.6765 26.264C60.2818 25.8373 59.7432 25.624 59.0605 25.624C58.3778 25.624 57.8338 25.8373 57.4285 26.264C57.0338 26.68 56.8365 27.2827 56.8365 28.072V33H55.0125V24.184H56.8365V25.192C57.1352 24.8293 57.5138 24.5467 57.9725 24.344C58.4418 24.1413 58.9378 24.04 59.4605 24.04ZM71.6874 25.672V30.552C71.6874 30.8827 71.762 31.1227 71.9114 31.272C72.0714 31.4107 72.338 31.48 72.7114 31.48H73.8314V33H72.3914C71.57 33 70.9407 32.808 70.5034 32.424C70.066 32.04 69.8474 31.416 69.8474 30.552V25.672H68.8074V24.184H69.8474V21.992H71.6874V24.184H73.8314V25.672H71.6874ZM74.9045 28.552C74.9045 27.6667 75.0858 26.8827 75.4485 26.2C75.8218 25.5173 76.3232 24.9893 76.9525 24.616C77.5925 24.232 78.2965 24.04 79.0645 24.04C79.7578 24.04 80.3605 24.1787 80.8725 24.456C81.3952 24.7227 81.8112 25.0587 82.1205 25.464V24.184H83.9605V33H82.1205V31.688C81.8112 32.104 81.3898 32.4507 80.8565 32.728C80.3232 33.0053 79.7152 33.144 79.0325 33.144C78.2752 33.144 77.5818 32.952 76.9525 32.568C76.3232 32.1733 75.8218 31.6293 75.4485 30.936C75.0858 30.232 74.9045 29.4373 74.9045 28.552ZM82.1205 28.584C82.1205 27.976 81.9925 27.448 81.7365 27C81.4912 26.552 81.1658 26.2107 80.7605 25.976C80.3552 25.7413 79.9178 25.624 79.4485 25.624C78.9792 25.624 78.5418 25.7413 78.1365 25.976C77.7312 26.2 77.4005 26.536 77.1445 26.984C76.8992 27.4213 76.7765 27.944 76.7765 28.552C76.7765 29.16 76.8992 29.6933 77.1445 30.152C77.4005 30.6107 77.7312 30.9627 78.1365 31.208C78.5525 31.4427 78.9898 31.56 79.4485 31.56C79.9178 31.56 80.3552 31.4427 80.7605 31.208C81.1658 30.9733 81.4912 30.632 81.7365 30.184C81.9925 29.7253 82.1205 29.192 82.1205 28.584ZM89.8443 28.6L93.9083 33H91.4443L88.1803 29.208V33H86.3563V21.16H88.1803V28.04L91.3803 24.184H93.9083L89.8443 28.6ZM103.296 28.376C103.296 28.7067 103.274 29.0053 103.232 29.272H96.4956C96.549 29.976 96.8103 30.5413 97.2796 30.968C97.749 31.3947 98.325 31.608 99.0076 31.608C99.989 31.608 100.682 31.1973 101.088 30.376H103.056C102.789 31.1867 102.304 31.8533 101.6 32.376C100.906 32.888 100.042 33.144 99.0076 33.144C98.165 33.144 97.4076 32.9573 96.7356 32.584C96.0743 32.2 95.5516 31.6667 95.1676 30.984C94.7943 30.2907 94.6076 29.4907 94.6076 28.584C94.6076 27.6773 94.789 26.8827 95.1516 26.2C95.525 25.5067 96.0423 24.9733 96.7036 24.6C97.3756 24.2267 98.1436 24.04 99.0076 24.04C99.8396 24.04 100.581 24.2213 101.232 24.584C101.882 24.9467 102.389 25.4587 102.752 26.12C103.114 26.7707 103.296 27.5227 103.296 28.376ZM101.392 27.8C101.381 27.128 101.141 26.5893 100.672 26.184C100.202 25.7787 99.621 25.576 98.9276 25.576C98.2983 25.576 97.7596 25.7787 97.3116 26.184C96.8636 26.5787 96.597 27.1173 96.5116 27.8H101.392ZM108.639 28.584C108.639 27.6773 108.82 26.8827 109.183 26.2C109.556 25.5067 110.068 24.9733 110.719 24.6C111.37 24.2267 112.116 24.04 112.959 24.04C114.026 24.04 114.906 24.296 115.599 24.808C116.303 25.3093 116.778 26.0293 117.023 26.968H115.055C114.895 26.5307 114.639 26.1893 114.287 25.944C113.935 25.6987 113.492 25.576 112.959 25.576C112.212 25.576 111.615 25.8427 111.167 26.376C110.73 26.8987 110.511 27.6347 110.511 28.584C110.511 29.5333 110.73 30.2747 111.167 30.808C111.615 31.3413 112.212 31.608 112.959 31.608C114.015 31.608 114.714 31.144 115.055 30.216H117.023C116.767 31.112 116.287 31.8267 115.583 32.36C114.879 32.8827 114.004 33.144 112.959 33.144C112.116 33.144 111.37 32.9573 110.719 32.584C110.068 32.2 109.556 31.6667 109.183 30.984C108.82 30.2907 108.639 29.4907 108.639 28.584ZM118.233 28.552C118.233 27.6667 118.414 26.8827 118.777 26.2C119.15 25.5173 119.651 24.9893 120.281 24.616C120.921 24.232 121.625 24.04 122.393 24.04C123.086 24.04 123.689 24.1787 124.201 24.456C124.723 24.7227 125.139 25.0587 125.449 25.464V24.184H127.289V33H125.449V31.688C125.139 32.104 124.718 32.4507 124.185 32.728C123.651 33.0053 123.043 33.144 122.361 33.144C121.603 33.144 120.91 32.952 120.281 32.568C119.651 32.1733 119.15 31.6293 118.777 30.936C118.414 30.232 118.233 29.4373 118.233 28.552ZM125.449 28.584C125.449 27.976 125.321 27.448 125.065 27C124.819 26.552 124.494 26.2107 124.089 25.976C123.683 25.7413 123.246 25.624 122.777 25.624C122.307 25.624 121.87 25.7413 121.465 25.976C121.059 26.2 120.729 26.536 120.473 26.984C120.227 27.4213 120.105 27.944 120.105 28.552C120.105 29.16 120.227 29.6933 120.473 30.152C120.729 30.6107 121.059 30.9627 121.465 31.208C121.881 31.4427 122.318 31.56 122.777 31.56C123.246 31.56 123.683 31.4427 124.089 31.208C124.494 30.9733 124.819 30.632 125.065 30.184C125.321 29.7253 125.449 29.192 125.449 28.584ZM131.508 25.464C131.775 25.016 132.127 24.6693 132.564 24.424C133.012 24.168 133.54 24.04 134.148 24.04V25.928H133.684C132.97 25.928 132.426 26.1093 132.052 26.472C131.69 26.8347 131.508 27.464 131.508 28.36V33H129.684V24.184H131.508V25.464ZM143.905 28.376C143.905 28.7067 143.884 29.0053 143.841 29.272H137.105C137.158 29.976 137.42 30.5413 137.889 30.968C138.358 31.3947 138.934 31.608 139.617 31.608C140.598 31.608 141.292 31.1973 141.697 30.376H143.665C143.398 31.1867 142.913 31.8533 142.209 32.376C141.516 32.888 140.652 33.144 139.617 33.144C138.774 33.144 138.017 32.9573 137.345 32.584C136.684 32.2 136.161 31.6667 135.777 30.984C135.404 30.2907 135.217 29.4907 135.217 28.584C135.217 27.6773 135.398 26.8827 135.761 26.2C136.134 25.5067 136.652 24.9733 137.313 24.6C137.985 24.2267 138.753 24.04 139.617 24.04C140.449 24.04 141.19 24.2213 141.841 24.584C142.492 24.9467 142.998 25.4587 143.361 26.12C143.724 26.7707 143.905 27.5227 143.905 28.376ZM142.001 27.8C141.99 27.128 141.75 26.5893 141.281 26.184C140.812 25.7787 140.23 25.576 139.537 25.576C138.908 25.576 138.369 25.7787 137.921 26.184C137.473 26.5787 137.206 27.1173 137.121 27.8H142.001ZM153.68 33.144C152.848 33.144 152.096 32.9573 151.424 32.584C150.752 32.2 150.224 31.6667 149.84 30.984C149.456 30.2907 149.264 29.4907 149.264 28.584C149.264 27.688 149.462 26.8933 149.856 26.2C150.251 25.5067 150.79 24.9733 151.472 24.6C152.155 24.2267 152.918 24.04 153.76 24.04C154.603 24.04 155.366 24.2267 156.048 24.6C156.731 24.9733 157.27 25.5067 157.664 26.2C158.059 26.8933 158.256 27.688 158.256 28.584C158.256 29.48 158.054 30.2747 157.648 30.968C157.243 31.6613 156.688 32.2 155.984 32.584C155.291 32.9573 154.523 33.144 153.68 33.144ZM153.68 31.56C154.15 31.56 154.587 31.448 154.992 31.224C155.408 31 155.744 30.664 156 30.216C156.256 29.768 156.384 29.224 156.384 28.584C156.384 27.944 156.262 27.4053 156.016 26.968C155.771 26.52 155.446 26.184 155.04 25.96C154.635 25.736 154.198 25.624 153.728 25.624C153.259 25.624 152.822 25.736 152.416 25.96C152.022 26.184 151.707 26.52 151.472 26.968C151.238 27.4053 151.12 27.944 151.12 28.584C151.12 29.5333 151.36 30.2693 151.84 30.792C152.331 31.304 152.944 31.56 153.68 31.56ZM163.755 25.672H162.123V33H160.283V25.672H159.243V24.184H160.283V23.56C160.283 22.5467 160.55 21.8107 161.083 21.352C161.627 20.8827 162.475 20.648 163.627 20.648V22.168C163.073 22.168 162.683 22.2747 162.459 22.488C162.235 22.6907 162.123 23.048 162.123 23.56V24.184H163.755V25.672ZM177.464 24.184L172.056 37.144H170.168L171.96 32.856L168.488 24.184H170.52L173 30.904L175.576 24.184H177.464ZM182.665 33.144C181.833 33.144 181.081 32.9573 180.409 32.584C179.737 32.2 179.209 31.6667 178.825 30.984C178.441 30.2907 178.249 29.4907 178.249 28.584C178.249 27.688 178.446 26.8933 178.841 26.2C179.235 25.5067 179.774 24.9733 180.457 24.6C181.139 24.2267 181.902 24.04 182.745 24.04C183.587 24.04 184.35 24.2267 185.033 24.6C185.715 24.9733 186.254 25.5067 186.649 26.2C187.043 26.8933 187.241 27.688 187.241 28.584C187.241 29.48 187.038 30.2747 186.633 30.968C186.227 31.6613 185.673 32.2 184.969 32.584C184.275 32.9573 183.507 33.144 182.665 33.144ZM182.665 31.56C183.134 31.56 183.571 31.448 183.977 31.224C184.393 31 184.729 30.664 184.985 30.216C185.241 29.768 185.369 29.224 185.369 28.584C185.369 27.944 185.246 27.4053 185.001 26.968C184.755 26.52 184.43 26.184 184.025 25.96C183.619 25.736 183.182 25.624 182.713 25.624C182.243 25.624 181.806 25.736 181.401 25.96C181.006 26.184 180.691 26.52 180.457 26.968C180.222 27.4053 180.105 27.944 180.105 28.584C180.105 29.5333 180.345 30.2693 180.825 30.792C181.315 31.304 181.929 31.56 182.665 31.56ZM197.028 24.184V33H195.204V31.96C194.916 32.3227 194.537 32.6107 194.068 32.824C193.609 33.0267 193.118 33.128 192.596 33.128C191.902 33.128 191.278 32.984 190.724 32.696C190.18 32.408 189.748 31.9813 189.428 31.416C189.118 30.8507 188.964 30.168 188.964 29.368V24.184H190.772V29.096C190.772 29.8853 190.969 30.4933 191.364 30.92C191.758 31.336 192.297 31.544 192.98 31.544C193.662 31.544 194.201 31.336 194.596 30.92C195.001 30.4933 195.204 29.8853 195.204 29.096V24.184H197.028ZM201.258 25.464C201.525 25.016 201.877 24.6693 202.314 24.424C202.762 24.168 203.29 24.04 203.898 24.04V25.928H203.434C202.72 25.928 202.176 26.1093 201.802 26.472C201.44 26.8347 201.258 27.464 201.258 28.36V33H199.434V24.184H201.258V25.464ZM211.555 25.48C211.865 25.0747 212.286 24.7333 212.819 24.456C213.353 24.1787 213.955 24.04 214.627 24.04C215.395 24.04 216.094 24.232 216.723 24.616C217.363 24.9893 217.865 25.5173 218.227 26.2C218.59 26.8827 218.771 27.6667 218.771 28.552C218.771 29.4373 218.59 30.232 218.227 30.936C217.865 31.6293 217.363 32.1733 216.723 32.568C216.094 32.952 215.395 33.144 214.627 33.144C213.955 33.144 213.358 33.0107 212.835 32.744C212.313 32.4667 211.886 32.1253 211.555 31.72V37.192H209.731V24.184H211.555V25.48ZM216.915 28.552C216.915 27.944 216.787 27.4213 216.531 26.984C216.286 26.536 215.955 26.2 215.539 25.976C215.134 25.7413 214.697 25.624 214.227 25.624C213.769 25.624 213.331 25.7413 212.915 25.976C212.51 26.2107 212.179 26.552 211.923 27C211.678 27.448 211.555 27.976 211.555 28.584C211.555 29.192 211.678 29.7253 211.923 30.184C212.179 30.632 212.51 30.9733 212.915 31.208C213.331 31.4427 213.769 31.56 214.227 31.56C214.697 31.56 215.134 31.4427 215.539 31.208C215.955 30.9627 216.286 30.6107 216.531 30.152C216.787 29.6933 216.915 29.16 216.915 28.552ZM221.503 23.016C221.172 23.016 220.895 22.904 220.671 22.68C220.447 22.456 220.335 22.1787 220.335 21.848C220.335 21.5173 220.447 21.24 220.671 21.016C220.895 20.792 221.172 20.68 221.503 20.68C221.823 20.68 222.095 20.792 222.319 21.016C222.543 21.24 222.655 21.5173 222.655 21.848C222.655 22.1787 222.543 22.456 222.319 22.68C222.095 22.904 221.823 23.016 221.503 23.016ZM222.399 24.184V33H220.575V24.184H222.399ZM226.922 25.672V30.552C226.922 30.8827 226.996 31.1227 227.146 31.272C227.306 31.4107 227.572 31.48 227.946 31.48H229.066V33H227.626C226.804 33 226.175 32.808 225.738 32.424C225.3 32.04 225.082 31.416 225.082 30.552V25.672H224.042V24.184H225.082V21.992H226.922V24.184H229.066V25.672H226.922ZM230.139 28.584C230.139 27.6773 230.32 26.8827 230.683 26.2C231.056 25.5067 231.568 24.9733 232.219 24.6C232.87 24.2267 233.616 24.04 234.459 24.04C235.526 24.04 236.406 24.296 237.099 24.808C237.803 25.3093 238.278 26.0293 238.523 26.968H236.555C236.395 26.5307 236.139 26.1893 235.787 25.944C235.435 25.6987 234.992 25.576 234.459 25.576C233.712 25.576 233.115 25.8427 232.667 26.376C232.23 26.8987 232.011 27.6347 232.011 28.584C232.011 29.5333 232.23 30.2747 232.667 30.808C233.115 31.3413 233.712 31.608 234.459 31.608C235.515 31.608 236.214 31.144 236.555 30.216H238.523C238.267 31.112 237.787 31.8267 237.083 32.36C236.379 32.8827 235.504 33.144 234.459 33.144C233.616 33.144 232.87 32.9573 232.219 32.584C231.568 32.2 231.056 31.6667 230.683 30.984C230.32 30.2907 230.139 29.4907 230.139 28.584ZM244.901 24.04C245.573 24.04 246.17 24.184 246.693 24.472C247.226 24.76 247.642 25.1867 247.941 25.752C248.25 26.3173 248.405 27 248.405 27.8V33H246.597V28.072C246.597 27.2827 246.399 26.68 246.005 26.264C245.61 25.8373 245.071 25.624 244.389 25.624C243.706 25.624 243.162 25.8373 242.757 26.264C242.362 26.68 242.165 27.2827 242.165 28.072V33H240.341V21.16H242.165V25.208C242.474 24.8347 242.863 24.5467 243.333 24.344C243.813 24.1413 244.335 24.04 244.901 24.04Z" fill="#2F281E"/>
</g>
<defs>
<filter id="filter0_d_1_75" x="-8" y="-6" width="290" height="75" filterUnits="userSpaceOnUse" color-interpolation-filters="sRGB">
<feFlood flood-opacity="0" result="BackgroundImageFix"/>
<feColorMatrix in="SourceAlpha" type="matrix" values="0 0 0 0 0 0 0 0 0 0 0 0 0 0 0 0 0 0 127 0" result="hardAlpha"/>
<feOffset dy="2"/>
<feGaussianBlur stdDeviation="4"/>
<feColorMatrix type="matrix" values="0 0 0 0 0.337255 0 0 0 0 0.458824 0 0 0 0 0.572549 0 0 0 0.1 0"/>
<feBlend mode="normal" in2="BackgroundImageFix" result="effect1_dropShadow_1_75"/>
<feBlend mode="normal" in="SourceGraphic" in2="effect1_dropShadow_1_75" result="shape"/>
</filter>
<filter id="filter1_d_1_75" x="6" y="48" width="39" height="39" filterUnits="userSpaceOnUse" color-interpolation-filters="sRGB">
<feFlood flood-opacity="0" result="BackgroundImageFix"/>
<feColorMatrix in="SourceAlpha" type="matrix" values="0 0 0 0 0 0 0 0 0 0 0 0 0 0 0 0 0 0 127 0" result="hardAlpha"/>
<feOffset dy="2"/>
<feGaussianBlur stdDeviation="7.5"/>
<feColorMatrix type="matrix" values="0 0 0 0 0.0901961 0 0 0 0 0.227451 0 0 0 0 0.337255 0 0 0 0.1 0"/>
<feBlend mode="normal" in2="BackgroundImageFix" result="effect1_dropShadow_1_75"/>
<feBlend mode="normal" in="SourceGraphic" in2="effect1_dropShadow_1_75" result="shape"/>
</filter>
<clipPath id="clip0_1_75">
<rect width="274" height="70" fill="white"/>
</clipPath>
</defs>
</svg>
