<svg width="240" height="71" viewBox="0 0 240 71" fill="none" xmlns="http://www.w3.org/2000/svg">
<g clip-path="url(#clip0_1_83)">
<g filter="url(#filter0_d_1_83)">
<path fill-rule="evenodd" clip-rule="evenodd" d="M26.5 0.542969C11.8645 0.542969 0 12.4074 0 27.043C0 41.6785 11.8645 53.543 26.5 53.543H187.374C188.441 57.0173 191.676 59.543 195.5 59.543C199.324 59.543 202.559 57.0173 203.626 53.543H213.5C228.136 53.543 240 41.6785 240 27.043C240 12.4074 228.136 0.542969 213.5 0.542969H26.5Z" fill="white"/>
</g>
<g filter="url(#filter1_d_1_83)">
<circle cx="218.5" cy="66.043" r="4.5" fill="white"/>
</g>
<path d="M25.2349 22.423V33.543H23.4109V22.423H25.2349ZM31.1779 29.127C31.1779 28.2203 31.3593 27.4256 31.7219 26.743C32.0953 26.0496 32.6073 25.5163 33.2579 25.143C33.9086 24.7696 34.6553 24.583 35.4979 24.583C36.5646 24.583 37.4446 24.839 38.1379 25.351C38.8419 25.8523 39.3166 26.5723 39.5619 27.511H37.5939C37.4339 27.0736 37.1779 26.7323 36.8259 26.487C36.4739 26.2416 36.0313 26.119 35.4979 26.119C34.7513 26.119 34.1539 26.3856 33.7059 26.919C33.2686 27.4416 33.0499 28.1776 33.0499 29.127C33.0499 30.0763 33.2686 30.8176 33.7059 31.351C34.1539 31.8843 34.7513 32.151 35.4979 32.151C36.5539 32.151 37.2526 31.687 37.5939 30.759H39.5619C39.3059 31.655 38.8259 32.3696 38.1219 32.903C37.4179 33.4256 36.5433 33.687 35.4979 33.687C34.6553 33.687 33.9086 33.5003 33.2579 33.127C32.6073 32.743 32.0953 32.2096 31.7219 31.527C31.3593 30.8336 31.1779 30.0336 31.1779 29.127ZM40.7717 29.095C40.7717 28.2096 40.953 27.4256 41.3157 26.743C41.689 26.0603 42.1904 25.5323 42.8197 25.159C43.4597 24.775 44.1637 24.583 44.9317 24.583C45.625 24.583 46.2277 24.7216 46.7397 24.999C47.2624 25.2656 47.6784 25.6016 47.9877 26.007V24.727H49.8277V33.543H47.9877V32.231C47.6784 32.647 47.257 32.9936 46.7237 33.271C46.1904 33.5483 45.5824 33.687 44.8997 33.687C44.1424 33.687 43.449 33.495 42.8197 33.111C42.1904 32.7163 41.689 32.1723 41.3157 31.479C40.953 30.775 40.7717 29.9803 40.7717 29.095ZM47.9877 29.127C47.9877 28.519 47.8597 27.991 47.6037 27.543C47.3584 27.095 47.033 26.7536 46.6277 26.519C46.2224 26.2843 45.785 26.167 45.3157 26.167C44.8464 26.167 44.409 26.2843 44.0037 26.519C43.5984 26.743 43.2677 27.079 43.0117 27.527C42.7664 27.9643 42.6437 28.487 42.6437 29.095C42.6437 29.703 42.7664 30.2363 43.0117 30.695C43.2677 31.1536 43.5984 31.5056 44.0037 31.751C44.4197 31.9856 44.857 32.103 45.3157 32.103C45.785 32.103 46.2224 31.9856 46.6277 31.751C47.033 31.5163 47.3584 31.175 47.6037 30.727C47.8597 30.2683 47.9877 29.735 47.9877 29.127ZM56.6714 24.583C57.3648 24.583 57.9834 24.727 58.5274 25.015C59.0821 25.303 59.5141 25.7296 59.8234 26.295C60.1328 26.8603 60.2874 27.543 60.2874 28.343V33.543H58.4794V28.615C58.4794 27.8256 58.2821 27.223 57.8874 26.807C57.4928 26.3803 56.9541 26.167 56.2714 26.167C55.5888 26.167 55.0448 26.3803 54.6394 26.807C54.2448 27.223 54.0474 27.8256 54.0474 28.615V33.543H52.2234V24.727H54.0474V25.735C54.3461 25.3723 54.7248 25.0896 55.1834 24.887C55.6528 24.6843 56.1488 24.583 56.6714 24.583ZM68.5943 26.023C68.9036 25.6176 69.325 25.2763 69.8583 24.999C70.3916 24.7216 70.9943 24.583 71.6663 24.583C72.4343 24.583 73.133 24.775 73.7623 25.159C74.4023 25.5323 74.9036 26.0603 75.2663 26.743C75.629 27.4256 75.8103 28.2096 75.8103 29.095C75.8103 29.9803 75.629 30.775 75.2663 31.479C74.9036 32.1723 74.4023 32.7163 73.7623 33.111C73.133 33.495 72.4343 33.687 71.6663 33.687C70.9943 33.687 70.397 33.5536 69.8743 33.287C69.3516 33.0096 68.925 32.6683 68.5943 32.263V37.735H66.7703V24.727H68.5943V26.023ZM73.9543 29.095C73.9543 28.487 73.8263 27.9643 73.5703 27.527C73.325 27.079 72.9943 26.743 72.5783 26.519C72.173 26.2843 71.7356 26.167 71.2663 26.167C70.8076 26.167 70.3703 26.2843 69.9543 26.519C69.549 26.7536 69.2183 27.095 68.9623 27.543C68.717 27.991 68.5943 28.519 68.5943 29.127C68.5943 29.735 68.717 30.2683 68.9623 30.727C69.2183 31.175 69.549 31.5163 69.9543 31.751C70.3703 31.9856 70.8076 32.103 71.2663 32.103C71.7356 32.103 72.173 31.9856 72.5783 31.751C72.9943 31.5056 73.325 31.1536 73.5703 30.695C73.8263 30.2363 73.9543 29.703 73.9543 29.095ZM79.4381 26.007C79.7047 25.559 80.0567 25.2123 80.4941 24.967C80.9421 24.711 81.4701 24.583 82.0781 24.583V26.471H81.6141C80.8994 26.471 80.3554 26.6523 79.9821 27.015C79.6194 27.3776 79.4381 28.007 79.4381 28.903V33.543H77.6141V24.727H79.4381V26.007ZM87.5787 33.687C86.7467 33.687 85.9947 33.5003 85.3227 33.127C84.6507 32.743 84.1227 32.2096 83.7387 31.527C83.3547 30.8336 83.1627 30.0336 83.1627 29.127C83.1627 28.231 83.36 27.4363 83.7547 26.743C84.1494 26.0496 84.688 25.5163 85.3707 25.143C86.0534 24.7696 86.816 24.583 87.6587 24.583C88.5014 24.583 89.264 24.7696 89.9467 25.143C90.6294 25.5163 91.168 26.0496 91.5627 26.743C91.9574 27.4363 92.1547 28.231 92.1547 29.127C92.1547 30.023 91.952 30.8176 91.5467 31.511C91.1414 32.2043 90.5867 32.743 89.8827 33.127C89.1894 33.5003 88.4214 33.687 87.5787 33.687ZM87.5787 32.103C88.048 32.103 88.4854 31.991 88.8907 31.767C89.3067 31.543 89.6427 31.207 89.8987 30.759C90.1547 30.311 90.2827 29.767 90.2827 29.127C90.2827 28.487 90.16 27.9483 89.9147 27.511C89.6694 27.063 89.344 26.727 88.9387 26.503C88.5334 26.279 88.096 26.167 87.6267 26.167C87.1574 26.167 86.72 26.279 86.3147 26.503C85.92 26.727 85.6054 27.063 85.3707 27.511C85.136 27.9483 85.0187 28.487 85.0187 29.127C85.0187 30.0763 85.2587 30.8123 85.7387 31.335C86.2294 31.847 86.8427 32.103 87.5787 32.103ZM96.0858 26.215V31.095C96.0858 31.4256 96.1605 31.6656 96.3098 31.815C96.4698 31.9536 96.7365 32.023 97.1098 32.023H98.2298V33.543H96.7898C95.9685 33.543 95.3391 33.351 94.9018 32.967C94.4645 32.583 94.2458 31.959 94.2458 31.095V26.215H93.2058V24.727H94.2458V22.535H96.0858V24.727H98.2298V26.215H96.0858ZM103.735 33.687C102.903 33.687 102.151 33.5003 101.479 33.127C100.807 32.743 100.279 32.2096 99.8949 31.527C99.5109 30.8336 99.3189 30.0336 99.3189 29.127C99.3189 28.231 99.5163 27.4363 99.9109 26.743C100.306 26.0496 100.844 25.5163 101.527 25.143C102.21 24.7696 102.972 24.583 103.815 24.583C104.658 24.583 105.42 24.7696 106.103 25.143C106.786 25.5163 107.324 26.0496 107.719 26.743C108.114 27.4363 108.311 28.231 108.311 29.127C108.311 30.023 108.108 30.8176 107.703 31.511C107.298 32.2043 106.743 32.743 106.039 33.127C105.346 33.5003 104.578 33.687 103.735 33.687ZM103.735 32.103C104.204 32.103 104.642 31.991 105.047 31.767C105.463 31.543 105.799 31.207 106.055 30.759C106.311 30.311 106.439 29.767 106.439 29.127C106.439 28.487 106.316 27.9483 106.071 27.511C105.826 27.063 105.5 26.727 105.095 26.503C104.69 26.279 104.252 26.167 103.783 26.167C103.314 26.167 102.876 26.279 102.471 26.503C102.076 26.727 101.762 27.063 101.527 27.511C101.292 27.9483 101.175 28.487 101.175 29.127C101.175 30.0763 101.415 30.8123 101.895 31.335C102.386 31.847 102.999 32.103 103.735 32.103ZM112.242 26.215V31.095C112.242 31.4256 112.317 31.6656 112.466 31.815C112.626 31.9536 112.893 32.023 113.266 32.023H114.386V33.543H112.946C112.125 33.543 111.495 33.351 111.058 32.967C110.621 32.583 110.402 31.959 110.402 31.095V26.215H109.362V24.727H110.402V22.535H112.242V24.727H114.386V26.215H112.242ZM124.003 24.727L118.595 37.687H116.707L118.499 33.399L115.027 24.727H117.059L119.539 31.447L122.115 24.727H124.003ZM127.204 26.023C127.513 25.6176 127.934 25.2763 128.468 24.999C129.001 24.7216 129.604 24.583 130.276 24.583C131.044 24.583 131.742 24.775 132.372 25.159C133.012 25.5323 133.513 26.0603 133.876 26.743C134.238 27.4256 134.42 28.2096 134.42 29.095C134.42 29.9803 134.238 30.775 133.876 31.479C133.513 32.1723 133.012 32.7163 132.372 33.111C131.742 33.495 131.044 33.687 130.276 33.687C129.604 33.687 129.006 33.5536 128.484 33.287C127.961 33.0096 127.534 32.6683 127.204 32.263V37.735H125.38V24.727H127.204V26.023ZM132.564 29.095C132.564 28.487 132.436 27.9643 132.18 27.527C131.934 27.079 131.604 26.743 131.188 26.519C130.782 26.2843 130.345 26.167 129.876 26.167C129.417 26.167 128.98 26.2843 128.564 26.519C128.158 26.7536 127.828 27.095 127.572 27.543C127.326 27.991 127.204 28.519 127.204 29.127C127.204 29.735 127.326 30.2683 127.572 30.727C127.828 31.175 128.158 31.5163 128.564 31.751C128.98 31.9856 129.417 32.103 129.876 32.103C130.345 32.103 130.782 31.9856 131.188 31.751C131.604 31.5056 131.934 31.1536 132.18 30.695C132.436 30.2363 132.564 29.703 132.564 29.095ZM144.303 28.919C144.303 29.2496 144.282 29.5483 144.239 29.815H137.503C137.557 30.519 137.818 31.0843 138.287 31.511C138.757 31.9376 139.333 32.151 140.015 32.151C140.997 32.151 141.69 31.7403 142.095 30.919H144.063C143.797 31.7296 143.311 32.3963 142.607 32.919C141.914 33.431 141.05 33.687 140.015 33.687C139.173 33.687 138.415 33.5003 137.743 33.127C137.082 32.743 136.559 32.2096 136.175 31.527C135.802 30.8336 135.615 30.0336 135.615 29.127C135.615 28.2203 135.797 27.4256 136.159 26.743C136.533 26.0496 137.05 25.5163 137.711 25.143C138.383 24.7696 139.151 24.583 140.015 24.583C140.847 24.583 141.589 24.7643 142.239 25.127C142.89 25.4896 143.397 26.0016 143.759 26.663C144.122 27.3136 144.303 28.0656 144.303 28.919ZM142.399 28.343C142.389 27.671 142.149 27.1323 141.679 26.727C141.21 26.3216 140.629 26.119 139.935 26.119C139.306 26.119 138.767 26.3216 138.319 26.727C137.871 27.1216 137.605 27.6603 137.519 28.343H142.399ZM158.191 24.727L152.783 37.687H150.895L152.687 33.399L149.215 24.727H151.247L153.727 31.447L156.303 24.727H158.191ZM163.391 33.687C162.559 33.687 161.807 33.5003 161.135 33.127C160.463 32.743 159.935 32.2096 159.551 31.527C159.167 30.8336 158.975 30.0336 158.975 29.127C158.975 28.231 159.173 27.4363 159.567 26.743C159.962 26.0496 160.501 25.5163 161.183 25.143C161.866 24.7696 162.629 24.583 163.471 24.583C164.314 24.583 165.077 24.7696 165.759 25.143C166.442 25.5163 166.981 26.0496 167.375 26.743C167.77 27.4363 167.967 28.231 167.967 29.127C167.967 30.023 167.765 30.8176 167.359 31.511C166.954 32.2043 166.399 32.743 165.695 33.127C165.002 33.5003 164.234 33.687 163.391 33.687ZM163.391 32.103C163.861 32.103 164.298 31.991 164.703 31.767C165.119 31.543 165.455 31.207 165.711 30.759C165.967 30.311 166.095 29.767 166.095 29.127C166.095 28.487 165.973 27.9483 165.727 27.511C165.482 27.063 165.157 26.727 164.751 26.503C164.346 26.279 163.909 26.167 163.439 26.167C162.97 26.167 162.533 26.279 162.127 26.503C161.733 26.727 161.418 27.063 161.183 27.511C160.949 27.9483 160.831 28.487 160.831 29.127C160.831 30.0763 161.071 30.8123 161.551 31.335C162.042 31.847 162.655 32.103 163.391 32.103ZM177.754 24.727V33.543H175.93V32.503C175.642 32.8656 175.264 33.1536 174.794 33.367C174.336 33.5696 173.845 33.671 173.322 33.671C172.629 33.671 172.005 33.527 171.45 33.239C170.906 32.951 170.474 32.5243 170.154 31.959C169.845 31.3936 169.69 30.711 169.69 29.911V24.727H171.498V29.639C171.498 30.4283 171.696 31.0363 172.09 31.463C172.485 31.879 173.024 32.087 173.706 32.087C174.389 32.087 174.928 31.879 175.322 31.463C175.728 31.0363 175.93 30.4283 175.93 29.639V24.727H177.754ZM181.985 26.007C182.252 25.559 182.604 25.2123 183.041 24.967C183.489 24.711 184.017 24.583 184.625 24.583V26.471H184.161C183.446 26.471 182.902 26.6523 182.529 27.015C182.166 27.3776 181.985 28.007 181.985 28.903V33.543H180.161V24.727H181.985V26.007ZM189.85 29.095C189.85 28.2096 190.031 27.4256 190.394 26.743C190.767 26.0603 191.268 25.5323 191.898 25.159C192.538 24.775 193.242 24.583 194.01 24.583C194.703 24.583 195.306 24.7216 195.818 24.999C196.34 25.2656 196.756 25.6016 197.066 26.007V24.727H198.906V33.543H197.066V32.231C196.756 32.647 196.335 32.9936 195.802 33.271C195.268 33.5483 194.66 33.687 193.978 33.687C193.22 33.687 192.527 33.495 191.898 33.111C191.268 32.7163 190.767 32.1723 190.394 31.479C190.031 30.775 189.85 29.9803 189.85 29.095ZM197.066 29.127C197.066 28.519 196.938 27.991 196.682 27.543C196.436 27.095 196.111 26.7536 195.706 26.519C195.3 26.2843 194.863 26.167 194.394 26.167C193.924 26.167 193.487 26.2843 193.082 26.519C192.676 26.743 192.346 27.079 192.09 27.527C191.844 27.9643 191.722 28.487 191.722 29.095C191.722 29.703 191.844 30.2363 192.09 30.695C192.346 31.1536 192.676 31.5056 193.082 31.751C193.498 31.9856 193.935 32.103 194.394 32.103C194.863 32.103 195.3 31.9856 195.706 31.751C196.111 31.5163 196.436 31.175 196.682 30.727C196.938 30.2683 197.066 29.735 197.066 29.127ZM203.126 26.023C203.435 25.6176 203.856 25.2763 204.39 24.999C204.923 24.7216 205.526 24.583 206.198 24.583C206.966 24.583 207.664 24.775 208.294 25.159C208.934 25.5323 209.435 26.0603 209.798 26.743C210.16 27.4256 210.342 28.2096 210.342 29.095C210.342 29.9803 210.16 30.775 209.798 31.479C209.435 32.1723 208.934 32.7163 208.294 33.111C207.664 33.495 206.966 33.687 206.198 33.687C205.526 33.687 204.928 33.5536 204.406 33.287C203.883 33.0096 203.456 32.6683 203.126 32.263V37.735H201.302V24.727H203.126V26.023ZM208.486 29.095C208.486 28.487 208.358 27.9643 208.102 27.527C207.856 27.079 207.526 26.743 207.11 26.519C206.704 26.2843 206.267 26.167 205.798 26.167C205.339 26.167 204.902 26.2843 204.486 26.519C204.08 26.7536 203.75 27.095 203.494 27.543C203.248 27.991 203.126 28.519 203.126 29.127C203.126 29.735 203.248 30.2683 203.494 30.727C203.75 31.175 204.08 31.5163 204.486 31.751C204.902 31.9856 205.339 32.103 205.798 32.103C206.267 32.103 206.704 31.9856 207.11 31.751C207.526 31.5056 207.856 31.1536 208.102 30.695C208.358 30.2363 208.486 29.703 208.486 29.095ZM213.969 26.023C214.279 25.6176 214.7 25.2763 215.233 24.999C215.767 24.7216 216.369 24.583 217.041 24.583C217.809 24.583 218.508 24.775 219.137 25.159C219.777 25.5323 220.279 26.0603 220.641 26.743C221.004 27.4256 221.185 28.2096 221.185 29.095C221.185 29.9803 221.004 30.775 220.641 31.479C220.279 32.1723 219.777 32.7163 219.137 33.111C218.508 33.495 217.809 33.687 217.041 33.687C216.369 33.687 215.772 33.5536 215.249 33.287C214.727 33.0096 214.3 32.6683 213.969 32.263V37.735H212.145V24.727H213.969V26.023ZM219.329 29.095C219.329 28.487 219.201 27.9643 218.945 27.527C218.7 27.079 218.369 26.743 217.953 26.519C217.548 26.2843 217.111 26.167 216.641 26.167C216.183 26.167 215.745 26.2843 215.329 26.519C214.924 26.7536 214.593 27.095 214.337 27.543C214.092 27.991 213.969 28.519 213.969 29.127C213.969 29.735 214.092 30.2683 214.337 30.727C214.593 31.175 214.924 31.5163 215.329 31.751C215.745 31.9856 216.183 32.103 216.641 32.103C217.111 32.103 217.548 31.9856 217.953 31.751C218.369 31.5056 218.7 31.1536 218.945 30.695C219.201 30.2363 219.329 29.703 219.329 29.095Z" fill="#2F281E"/>
</g>
<defs>
<filter id="filter0_d_1_83" x="-8" y="-5.45703" width="256" height="75" filterUnits="userSpaceOnUse" color-interpolation-filters="sRGB">
<feFlood flood-opacity="0" result="BackgroundImageFix"/>
<feColorMatrix in="SourceAlpha" type="matrix" values="0 0 0 0 0 0 0 0 0 0 0 0 0 0 0 0 0 0 127 0" result="hardAlpha"/>
<feOffset dy="2"/>
<feGaussianBlur stdDeviation="4"/>
<feColorMatrix type="matrix" values="0 0 0 0 0.337255 0 0 0 0 0.458824 0 0 0 0 0.572549 0 0 0 0.1 0"/>
<feBlend mode="normal" in2="BackgroundImageFix" result="effect1_dropShadow_1_83"/>
<feBlend mode="normal" in="SourceGraphic" in2="effect1_dropShadow_1_83" result="shape"/>
</filter>
<filter id="filter1_d_1_83" x="199" y="48.543" width="39" height="39" filterUnits="userSpaceOnUse" color-interpolation-filters="sRGB">
<feFlood flood-opacity="0" result="BackgroundImageFix"/>
<feColorMatrix in="SourceAlpha" type="matrix" values="0 0 0 0 0 0 0 0 0 0 0 0 0 0 0 0 0 0 127 0" result="hardAlpha"/>
<feOffset dy="2"/>
<feGaussianBlur stdDeviation="7.5"/>
<feColorMatrix type="matrix" values="0 0 0 0 0.0901961 0 0 0 0 0.227451 0 0 0 0 0.337255 0 0 0 0.1 0"/>
<feBlend mode="normal" in2="BackgroundImageFix" result="effect1_dropShadow_1_83"/>
<feBlend mode="normal" in="SourceGraphic" in2="effect1_dropShadow_1_83" result="shape"/>
</filter>
<clipPath id="clip0_1_83">
<rect width="240" height="70" fill="white" transform="translate(0 0.542969)"/>
</clipPath>
</defs>
</svg>
